<svg viewBox="119.29824 201.28070063694267 777.92394 792.698067940552" version="1.1" xmlns:xlink="http://www.w3.org/1999/xlink" xmlns="http://www.w3.org/2000/svg" style="max-height: 500px" width="777.92394" height="792.698067940552">
<defs>
<clipPath id="clip_0">
<path d="M0 1170.411H2485.383V0H0Z" transform="matrix(1,0,0,-1,0,1170.41)"/>
</clipPath>
</defs>
<g>
<g clip-path="url(#clip_0)">
<path fill-rule="evenodd" fill="#1f419a" d="M0 0C0-203.691-165.125-368.815-368.815-368.815-572.507-368.815-737.631-203.691-737.631 0-737.631 203.691-572.507 368.815-368.815 368.815-165.125 368.815 0 203.691 0 0" transform="matrix(1,0,0,-1,872.2996,591.424)"/>
<path fill="#ffffff" d="M0 0 45.674-7.384 44.775-12.944 4.491-6.432 1.146-27.127-4.245-26.256Z" transform="matrix(1,0,0,-1,159.3494,523.02078)"/>
<path fill="#ffffff" d="M0 0 6.564-.65 6.012-6.227 .83-5.713C-1.977-5.436-3.967-4.937-5.143-4.217-6.757-3.221-7.907-1.803-8.591 .034L-6.235 1.084C-5.878-.001-5.228-.849-4.283-1.458-3.339-2.066-2.001-2.486-.269-2.716Z" transform="matrix(1,0,0,-1,194.8641,557.40896)"/>
<path fill="#ffffff" d="M0 0-.257-14.429 12.633-10.215C16.549-8.929 19.765-7.98 22.28-7.367 19.323-6.772 16.392-5.955 13.485-4.916ZM-18.778 12.618 27.191-4.55 27.083-10.618-19.487-27.212-19.373-20.796-5.274-16.082-4.957 1.714-18.884 6.638Z" transform="matrix(1,0,0,-1,172.0848,577.75906)"/>
<path fill="#ffffff" d="M0 0 1.051-5.233C-1.226-5.722-3.053-6.5-4.434-7.568-5.814-8.636-6.86-10.18-7.57-12.2-8.28-14.22-8.511-16.433-8.261-18.84-8.039-20.977-7.498-22.828-6.637-24.393-5.776-25.958-4.704-27.077-3.417-27.751-2.13-28.425-.776-28.688 .647-28.541 2.091-28.391 3.312-27.875 4.31-26.993 5.308-26.11 6.081-24.746 6.629-22.898 6.993-21.712 7.48-19.122 8.091-15.127 8.702-11.133 9.377-8.309 10.115-6.656 11.056-4.515 12.328-2.86 13.931-1.691 15.533-.522 17.391 .171 19.505 .391 21.828 .632 24.062 .251 26.208-.752 28.353-1.755 30.07-3.367 31.358-5.588 32.646-7.809 33.438-10.345 33.735-13.194 34.061-16.333 33.799-19.157 32.949-21.668 32.099-24.18 30.674-26.191 28.673-27.703 26.672-29.214 24.327-30.158 21.638-30.535L20.64-25.209C23.519-24.618 25.615-23.413 26.928-21.593 28.241-19.773 28.729-17.236 28.391-13.983 28.039-10.594 27.107-8.195 25.597-6.785 24.086-5.375 22.378-4.77 20.474-4.967 18.82-5.139 17.517-5.829 16.564-7.037 15.608-8.226 14.807-11.156 14.161-15.825 13.514-20.495 12.86-23.721 12.199-25.502 11.22-28.094 9.844-30.076 8.073-31.448 6.3-32.818 4.18-33.632 1.71-33.889-.738-34.143-3.112-33.738-5.412-32.673-7.712-31.607-9.589-29.929-11.043-27.638-12.498-25.347-13.382-22.689-13.696-19.667-14.094-15.835-13.82-12.562-12.875-9.846-11.931-7.131-10.316-4.91-8.03-3.184-5.746-1.458-3.068-.396 0 0" transform="matrix(1,0,0,-1,167.8006,609.4602)"/>
<path fill="#ffffff" d="M0 0 1.687-5.064C-.512-5.829-2.23-6.827-3.469-8.057-4.708-9.286-5.556-10.946-6.012-13.039-6.469-15.13-6.425-17.355-5.881-19.713-5.398-21.807-4.633-23.577-3.587-25.024-2.541-26.471-1.337-27.45 .022-27.961 1.381-28.471 2.758-28.566 4.152-28.244 5.567-27.918 6.715-27.255 7.597-26.258 8.479-25.259 9.078-23.81 9.396-21.909 9.61-20.687 9.775-18.057 9.891-14.018 10.005-9.978 10.328-7.093 10.857-5.362 11.527-3.121 12.586-1.322 14.033 .035 15.479 1.392 17.238 2.309 19.309 2.787 21.584 3.312 23.849 3.208 26.102 2.477 28.354 1.745 30.256 .356 31.808-1.69 33.359-3.735 34.457-6.154 35.102-8.946 35.811-12.02 35.898-14.855 35.364-17.452 34.829-20.049 33.662-22.22 31.862-23.966 30.063-25.712 27.852-26.937 25.229-27.643L23.584-22.479C26.368-21.539 28.3-20.085 29.379-18.118 30.458-16.15 30.63-13.573 29.895-10.385 29.129-7.065 27.91-4.799 26.237-3.586 24.564-2.373 22.795-1.981 20.93-2.412 19.31-2.786 18.101-3.631 17.304-4.947 16.502-6.244 16.067-9.25 16-13.964 15.932-18.677 15.679-21.959 15.243-23.808 14.59-26.501 13.469-28.637 11.879-30.216 10.289-31.795 8.284-32.863 5.865-33.422 3.467-33.975 1.061-33.864-1.353-33.09-3.767-32.316-5.836-30.881-7.561-28.787-9.286-26.691-10.49-24.163-11.173-21.202-12.039-17.449-12.17-14.166-11.566-11.355-10.963-8.544-9.633-6.141-7.578-4.147-5.522-2.153-2.997-.771 0 0" transform="matrix(1,0,0,-1,172.4925,650.50369)"/>
<path fill="#ffffff" d="M0 0C-5.216-1.969-8.838-4.811-10.866-8.525-12.894-12.238-13.172-16.042-11.702-19.936-10.205-23.902-7.457-26.594-3.458-28.012 .541-29.43 5.325-29.088 10.896-26.984 14.419-25.654 17.288-23.945 19.502-21.857 21.717-19.77 23.149-17.397 23.799-14.742 24.449-12.086 24.279-9.444 23.288-6.818 21.879-3.088 19.274-.404 15.474 1.233 11.673 2.871 6.515 2.46 0 0M-1.962 5.467C5.222 8.179 11.517 8.527 16.921 6.513 22.326 4.498 26.088 .684 28.208-4.93 29.596-8.606 29.892-12.281 29.098-15.953 28.302-19.626 26.49-22.881 23.659-25.719 20.829-28.557 17.248-30.793 12.917-32.428 8.528-34.086 4.293-34.753 .214-34.432-3.866-34.109-7.361-32.791-10.27-30.475-13.18-28.16-15.288-25.272-16.593-21.813-18.008-18.064-18.29-14.343-17.435-10.648-16.582-6.953-14.739-3.703-11.908-.896-9.077 1.911-5.762 4.031-1.962 5.467" transform="matrix(1,0,0,-1,191.2737,693.7927)"/>
<path fill="#ffffff" d="M0 0 1.343-5.685C-3.637-7.06-8.021-7.032-11.808-5.606-15.597-4.179-18.553-1.521-20.678 2.37-22.876 6.396-23.774 10.157-23.37 13.653-22.966 17.149-21.434 20.479-18.774 23.641-16.114 26.804-12.845 29.442-8.967 31.562-4.739 33.87-.645 35.142 3.316 35.375 7.276 35.608 10.823 34.8 13.956 32.948 17.088 31.097 19.555 28.524 21.355 25.228 23.396 21.491 24.078 17.782 23.402 14.104 22.726 10.427 20.787 7.063 17.586 4.014L13.681 8.2C16.162 10.681 17.627 13.112 18.075 15.497 18.523 17.88 18.065 20.321 16.701 22.818 15.133 25.69 13.075 27.681 10.526 28.792 7.977 29.903 5.229 30.161 2.282 29.565-.666 28.972-3.479 27.942-6.156 26.479-9.609 24.594-12.371 22.484-14.441 20.151-16.511 17.819-17.65 15.327-17.856 12.679-18.064 10.028-17.546 7.565-16.302 5.289-14.79 2.521-12.642 .649-9.857-.322-7.073-1.294-3.788-1.187 0 0" transform="matrix(1,0,0,-1,216.2918,763.2937)"/>
<path fill="#ffffff" d="M0 0 38.392 25.822 41.535 21.148 3.144-4.674Z" transform="matrix(1,0,0,-1,210.8509,784.58767)"/>
<path fill="#ffffff" d="M0 0 9.061-11.232 16.244 .271C18.423 3.77 20.28 6.561 21.816 8.646 19.166 7.205 16.394 5.95 13.498 4.883ZM-22.499-2.369 23.775 13.957 27.586 9.234 2.513-33.375-1.516-28.381 6.273-15.719-4.902-1.865-18.744-7.025Z" transform="matrix(1,0,0,-1,240.4612,793.5134)"/>
<path fill="#ffffff" d="M0 0 28.946 28.764 19.061 38.711 22.934 42.56 46.716 18.627 42.843 14.779 32.916 24.768 3.97-3.996Z" transform="matrix(1,0,0,-1,252.8587,836.5896)"/>
<path fill="#ffffff" d="M0 0 30.061 35.172 34.343 31.512 4.282-3.66Z" transform="matrix(1,0,0,-1,273.7561,856.27908)"/>
<path fill="#ffffff" d="M0 0C-3.196-4.568-4.583-8.959-4.162-13.168-3.741-17.379-1.825-20.676 1.585-23.062 5.059-25.492 8.846-26.164 12.948-25.079 17.05-23.994 20.807-21.012 24.22-16.133 26.379-13.047 27.783-10.018 28.434-7.044 29.084-4.07 28.928-1.305 27.967 1.255 27.005 3.814 25.375 5.899 23.075 7.508 19.807 9.793 16.143 10.54 12.081 9.748 8.019 8.956 3.992 5.707 0 0M-4.704 3.406C-.302 9.699 4.698 13.539 10.298 14.924 15.896 16.31 21.155 15.283 26.072 11.844 29.292 9.592 31.609 6.725 33.025 3.244 34.441-.237 34.781-3.947 34.045-7.888 33.309-11.828 31.614-15.694 28.96-19.486 26.271-23.332 23.151-26.271 19.602-28.309 16.051-30.344 12.422-31.227 8.713-30.956 5.005-30.686 1.636-29.49-1.394-27.371-4.677-25.075-7.009-22.16-8.388-18.628-9.768-15.096-10.081-11.372-9.326-7.457-8.572-3.543-7.032 .078-4.704 3.406" transform="matrix(1,0,0,-1,303.7923,852.24)"/>
<path fill="#ffffff" d="M0 0 21.042 41.206 26.187 38.578 29.579-3.941 46.099 28.41 50.909 25.955 29.867-15.252 24.721-12.623 21.344 29.924 4.81-2.456Z" transform="matrix(1,0,0,-1,329.1736,896.15017)"/>
<path fill="#ffffff" d="M0 0 8.717-2.568C11.409-3.361 13.602-3.711 15.294-3.618 16.987-3.524 18.434-3.117 19.635-2.396 21.326-1.381 22.876 .196 24.284 2.337 25.69 4.477 26.889 7.223 27.876 10.573 29.244 15.215 29.595 18.988 28.927 21.895 28.259 24.8 27.048 26.973 25.292 28.41 24.023 29.443 21.782 30.432 18.57 31.379L9.991 33.906ZM-6.947-3.645 6.132 40.736 20.197 36.592C23.372 35.656 25.732 34.73 27.278 33.813 29.445 32.539 31.129 30.891 32.329 28.87 33.9 26.258 34.767 23.255 34.927 19.863 35.088 16.471 34.585 12.796 33.42 8.841 32.427 5.471 31.185 2.59 29.692 .199 28.202-2.189 26.638-4.071 25.003-5.443 23.368-6.814 21.733-7.791 20.099-8.373 18.463-8.955 16.621-9.219 14.569-9.162 12.517-9.105 10.256-8.714 7.787-7.986Z" transform="matrix(1,0,0,-1,394.9656,919.3435)"/>
<path fill="#ffffff" d="M0 0 7.268 45.693 37.663 40.858 36.806 35.467 11.973 39.416 9.747 25.421 33.002 21.724 32.15 16.362 8.895 20.061 6.421 4.507 32.229 .403 31.371-4.989Z" transform="matrix(1,0,0,-1,433.0467,935.2683)"/>
<path fill="#ffffff" d="M0 0 10.596 .172C12.415 .201 13.691 .296 14.425 .455 15.717 .729 16.795 1.167 17.656 1.771 18.518 2.373 19.219 3.242 19.762 4.377 20.305 5.512 20.564 6.814 20.541 8.288 20.514 10.013 20.082 11.505 19.249 12.765 18.416 14.024 17.273 14.9 15.823 15.393 14.373 15.885 12.293 16.108 9.584 16.064L-.258 15.904ZM-.348 21.364 8.855 21.514C11.354 21.554 13.141 21.762 14.219 22.137 15.643 22.623 16.709 23.408 17.418 24.493 18.127 25.578 18.467 26.93 18.441 28.55 18.416 30.085 18.056 31.432 17.359 32.588 16.662 33.744 15.682 34.528 14.417 34.939 13.152 35.35 10.99 35.531 7.933 35.481L-.574 35.344ZM-5.544-5.55-6.295 40.711 9.674 40.971C12.925 41.023 15.54 40.597 17.52 39.693 19.5 38.789 21.062 37.372 22.206 35.444 23.351 33.517 23.939 31.49 23.975 29.365 24.006 27.388 23.543 25.518 22.584 23.756 21.625 21.994 20.158 20.561 18.182 19.455 20.77 18.676 22.772 17.309 24.188 15.354 25.603 13.398 26.333 11.075 26.377 8.383 26.412 6.215 26.023 4.194 25.211 2.318 24.4 .443 23.383-1.01 22.16-2.039 20.938-3.068 19.397-3.857 17.538-4.402 15.678-4.948 13.395-5.243 10.685-5.287Z" transform="matrix(1,0,0,-1,498.8631,936.6735)"/>
<path fill="#ffffff" d="M0 0-6.3 45.837 24.191 50.027 24.935 44.618 .024 41.195 1.954 27.156 25.282 30.362 26.021 24.984 2.692 21.778 4.837 6.176 30.726 9.734 31.469 4.325Z" transform="matrix(1,0,0,-1,536.6746,940.7888)"/>
<path fill="#ffffff" d="M0 0-10.279 45.111-4.787 46.363 5.492 1.252Z" transform="matrix(1,0,0,-1,579.0516,933.85916)"/>
<path fill="#ffffff" d="M0 0 4.639 2.207C5.801-1.134 7.09-3.27 8.508-4.201 9.926-5.133 11.551-5.318 13.383-4.759 14.734-4.346 15.799-3.653 16.574-2.68 17.35-1.705 17.745-.584 17.763 .687 17.779 1.957 17.401 3.859 16.627 6.395L7.32 36.883 12.709 38.527 21.913 8.371C23.043 4.668 23.507 1.676 23.304-.608 23.1-2.893 22.268-4.84 20.807-6.452 19.346-8.064 17.412-9.238 15.006-9.973 11.432-11.063 8.355-10.781 5.776-9.127 3.196-7.473 1.271-4.43 0 0" transform="matrix(1,0,0,-1,589.5701,918.0739)"/>
<path fill="#ffffff" d="M0 0-16.668 43.16-11.413 45.189 5.255 2.029Z" transform="matrix(1,0,0,-1,627.2137,919.56619)"/>
<path fill="#ffffff" d="M0 0-20.592 41.433-15.418 44.004 20.77 21.425 4.603 53.955 9.439 56.358 30.031 14.926 24.857 12.354-11.346 34.962 4.836 2.404Z" transform="matrix(1,0,0,-1,644.1404,913.1052)"/>
<path fill="#ffffff" d="M0 0-3.063 4.48 11.805 14.682 21.493 .508C20.562-3.034 19.222-6.135 17.476-8.794 15.729-11.453 13.578-13.656 11.021-15.404 7.569-17.764 3.884-19.104-.034-19.426-3.953-19.746-7.671-18.879-11.187-16.822-14.702-14.766-17.743-11.861-20.308-8.109-22.849-4.393-24.505-.434-25.277 3.766-26.05 7.966-25.628 11.766-24.012 15.164-22.396 18.562-19.837 21.457-16.338 23.85-13.797 25.586-11.194 26.709-8.529 27.219-5.864 27.727-3.402 27.582-1.144 26.781 1.116 25.98 3.427 24.502 5.792 22.347L2.452 18.229C.595 19.813-1.105 20.895-2.648 21.471-4.191 22.047-5.919 22.172-7.829 21.848-9.741 21.521-11.583 20.754-13.357 19.541-15.483 18.088-17.081 16.48-18.149 14.717-19.219 12.954-19.837 11.174-20.004 9.378-20.171 7.582-20.05 5.816-19.64 4.084-18.919 1.109-17.615-1.758-15.728-4.52-13.4-7.924-10.913-10.404-8.268-11.959-5.622-13.516-2.888-14.145-.067-13.847 2.755-13.549 5.323-12.608 7.642-11.025 9.654-9.648 11.333-7.884 12.674-5.73 14.016-3.577 14.855-1.685 15.193-.051L10.331 7.062Z" transform="matrix(1,0,0,-1,691.9813,865.3025)"/>
<path fill="#ffffff" d="M0 0 6.409 6.442C8.389 8.433 9.74 10.194 10.464 11.727 11.188 13.26 11.519 14.726 11.456 16.126 11.369 18.097 10.72 20.21 9.507 22.468 8.295 24.724 6.45 27.084 3.975 29.548 .544 32.96-2.608 35.065-5.481 35.862-8.354 36.657-10.841 36.627-12.941 35.769-14.454 35.144-16.392 33.644-18.753 31.269L-25.06 24.929ZM-.103-7.845-32.903 24.786-22.562 35.182C-20.228 37.528-18.29 39.163-16.747 40.087-14.595 41.386-12.345 42.081-9.995 42.175-6.95 42.313-3.897 41.645-.838 40.171 2.222 38.696 5.214 36.506 8.138 33.598 10.628 31.119 12.569 28.655 13.962 26.206 15.354 23.757 16.263 21.486 16.69 19.396 17.118 17.305 17.199 15.401 16.933 13.688 16.667 11.972 16.021 10.227 14.993 8.449 13.968 6.671 12.546 4.87 10.73 3.045Z" transform="matrix(1,0,0,-1,740.2313,842.8015)"/>
<path fill="#ffffff" d="M0 0 3.412 4.481 24.684-11.707C28.384-14.523 31.029-17.145 32.619-19.571 34.209-21.998 34.922-24.735 34.757-27.784 34.592-30.833 33.266-33.989 30.781-37.255 28.365-40.429 25.797-42.571 23.072-43.685 20.348-44.798 17.531-44.929 14.623-44.077 11.715-43.227 8.31-41.316 4.408-38.347L-16.863-22.158-13.452-17.676 7.795-33.846C10.992-36.28 13.557-37.8 15.488-38.405 17.42-39.013 19.303-38.962 21.137-38.253 22.972-37.546 24.621-36.229 26.087-34.304 28.596-31.007 29.572-28.04 29.014-25.402 28.457-22.765 25.867-19.687 21.247-16.171Z" transform="matrix(1,0,0,-1,752.5115,766.739)"/>
<path fill="#ffffff" d="M0 0C2.332 2.472 4.844 4.218 7.535 5.235 6.068 9.661 2.387 13.339-3.51 16.27-6.863 17.937-10.055 18.868-13.082 19.064-16.109 19.261-18.816 18.693-21.205 17.362-23.594 16.03-25.412 14.108-26.662 11.595-28.531 7.833-28.683 4.019-27.116 .149-25.551-3.721-21.987-7.036-16.43-9.798-11.041-12.477-6.295-13.306-2.193-12.285 1.908-11.265 4.906-8.849 6.802-5.034 7.697-3.231 8.174-1.351 8.232 .61 6.336-.415 4.719-1.687 3.377-3.202ZM12.525 7.62C15.441 9.089 17.795 10.61 19.587 12.184L22.666 8.806C20.23 6.601 17.178 4.713 13.508 3.144 13.818-.534 13.125-4.081 11.429-7.495 9.715-10.945 7.256-13.624 4.051-15.534 .847-17.443-2.771-18.342-6.805-18.229-10.836-18.117-14.906-17.04-19.014-14.999-23.102-12.968-26.445-10.355-29.041-7.163-31.637-3.972-33.11-.531-33.463 3.157-33.815 6.845-33.126 10.431-31.395 13.915-29.646 17.434-27.16 20.153-23.937 22.076-20.715 23.997-17.102 24.888-13.096 24.745-9.09 24.603-5.033 23.511-.926 21.47 2.484 19.774 5.314 17.774 7.562 15.468 9.813 13.161 11.467 10.546 12.525 7.62" transform="matrix(1,0,0,-1,806.7733,740.36599)"/>
<path fill="#ffffff" d="M0 0 1.783 5.343 27.141-3.118C31.551-4.589 34.9-6.217 37.189-8.001 39.477-9.785 41.035-12.146 41.861-15.085 42.689-18.025 42.453-21.441 41.154-25.333 39.893-29.116 38.15-31.973 35.932-33.906 33.712-35.838 31.088-36.871 28.061-37.003 25.033-37.136 21.194-36.426 16.544-34.875L-8.813-26.414-7.03-21.07 18.297-29.521C22.109-30.793 25.027-31.405 27.051-31.355 29.074-31.306 30.84-30.651 32.348-29.388 33.855-28.126 34.992-26.348 35.759-24.052 37.07-20.124 37.036-17 35.658-14.683 34.279-12.367 30.836-10.289 25.327-8.451Z" transform="matrix(1,0,0,-1,795.7303,677.34207)"/>
<path fill="#ffffff" d="M0 0-45.408 8.876-39.504 39.082-34.146 38.035-38.969 13.357-25.062 10.638-20.545 33.749-15.217 32.708-19.734 9.597-4.277 6.576 .734 32.223 6.094 31.175ZM-45.968 20.819-53.9 26.305-52.586 33.03-45.138 25.065Z" transform="matrix(1,0,0,-1,844.6502,673.91287)"/>
<path fill="#ffffff" d="M0 0 .744 10.572C.871 12.387 .888 13.666 .793 14.411 .631 15.722 .288 16.833-.238 17.743-.766 18.653-1.57 19.428-2.654 20.067-3.736 20.706-5.014 21.077-6.482 21.18-8.203 21.301-9.728 21.001-11.055 20.279-12.381 19.558-13.353 18.495-13.969 17.093-14.584 15.691-14.986 13.638-15.176 10.935L-15.867 1.116ZM-21.313 1.499-20.668 10.681C-20.492 13.171-20.545 14.97-20.826 16.077-21.187 17.538-21.877 18.668-22.896 19.468-23.916 20.267-25.234 20.724-26.851 20.837-28.383 20.945-29.755 20.702-30.967 20.108-32.18 19.514-33.045 18.604-33.563 17.38-34.082 16.155-34.449 14.017-34.663 10.966L-35.26 2.48ZM5.052-6.002-41.102-2.756-39.981 13.174C-39.754 16.418-39.104 18.987-38.031 20.881-36.959 22.775-35.414 24.209-33.395 25.183-31.375 26.157-29.305 26.569-27.186 26.42-25.213 26.281-23.39 25.659-21.717 24.551-20.044 23.444-18.742 21.858-17.812 19.794-16.812 22.304-15.277 24.181-13.208 25.423-11.139 26.664-8.76 27.191-6.073 27.002-3.912 26.85-1.932 26.289-.133 25.318 1.665 24.348 3.025 23.208 3.945 21.902 4.865 20.595 5.518 18.992 5.9 17.093 6.284 15.193 6.381 12.892 6.19 10.189Z" transform="matrix(1,0,0,-1,847.0604,625.81527)"/>
<path fill="#ffffff" d="M0 0-46.208-2.342-47.767 28.396-42.313 28.672-41.04 3.56-26.888 4.277-28.08 27.795-22.659 28.069-21.466 4.552-5.737 5.349-7.062 31.448-1.608 31.724Z" transform="matrix(1,0,0,-1,854.3817,588.4904)"/>
<path fill="#ffffff" d="M0 0 .522 5.818C5.682 5.548 9.832 4.137 12.975 1.586 16.117-.965 18.082-4.422 18.868-8.784 19.682-13.299 19.345-17.151 17.856-20.34 16.368-23.529 13.862-26.204 10.339-28.363 6.816-30.522 2.88-31.994-1.469-32.777-6.21-33.632-10.496-33.544-14.328-32.514-18.158-31.483-21.268-29.595-23.654-26.849-26.041-24.103-27.568-20.881-28.234-17.186-28.99-12.995-28.465-9.261-26.661-5.986-24.857-2.71-21.955-.132-17.953 1.75L-15.572-3.456C-18.71-5.024-20.868-6.869-22.047-8.989-23.225-11.11-23.562-13.57-23.058-16.371-22.478-19.59-21.154-22.13-19.087-23.989-17.02-25.85-14.494-26.963-11.51-27.33-8.525-27.696-5.531-27.609-2.529-27.068 1.343-26.37 4.629-25.242 7.331-23.683 10.032-22.124 11.9-20.121 12.934-17.672 13.968-15.224 14.254-12.724 13.795-10.17 13.234-7.066 11.788-4.612 9.453-2.81 7.119-1.008 3.968-.072 0 0" transform="matrix(1,0,0,-1,830.1424,518.42947)"/>
<path fill-rule="evenodd" fill="#ffffff" d="M0 0C0-158.36-128.376-286.737-286.736-286.737-445.097-286.737-573.474-158.36-573.474 0-573.474 158.36-445.097 286.737-286.736 286.737-128.376 286.737 0 158.36 0 0" transform="matrix(1,0,0,-1,790.2205,591.424)"/>
<path d="M0 0C0-158.36-128.376-286.737-286.736-286.737-445.097-286.737-573.474-158.36-573.474 0-573.474 158.36-445.097 286.737-286.736 286.737-128.376 286.737 0 158.36 0 0Z" stroke="#1f419a" fill="none" stroke-linejoin="miter" stroke-miterlimit="10" stroke-linecap="butt" stroke-width="3" transform="matrix(1,0,0,-1,790.2205,591.424)"/>
<path fill-rule="evenodd" fill="#1f419a" d="M0 0C-2.177-2.983-5.693-4.199-10.319-4.8-16.863-5.649-20.995-1.311-23.04 2.64-28.636 13.453-27.121 32.754-27.12 48.72V180.72C-27.12 195.828-28.72 220.308-22.319 228.96-19.776 232.397-17.104 231.619-13.2 233.52-7.808 233.568-3.054 232.448-.72 229.44 5.2 221.812 4.321 201.748 4.32 188.16V48C4.321 33.462 6.104 8.365 0 0M-154.56 49.2C-156.597 46.213-159.904 44.985-164.16 44.16-169.157 43.19-173.773 45.826-175.92 48-183.204 55.374-181.681 82.214-181.68 97.2V229.2C-181.68 243.067-182.87 269.101-177.6 277.2-176.172 279.394-173.489 281.245-170.64 282-169.6 282.16-168.56 282.32-167.52 282.48-163.995 282.072-160.265 281.75-157.68 279.84-149.123 273.518-149.998 249.748-150 234.48V99.12C-149.999 84.516-148.855 57.566-154.56 49.2M110.641 38.4V88.32C110.561 123.756 110.48 159.204 110.4 194.64 110.16 201.679 109.92 208.721 109.681 215.76 109.04 221.52 108.4 227.281 107.761 233.04 105.228 244.761 102.856 255.135 97.44 263.76 88.662 277.737 75.271 287.187 57.84 292.56 51.551 294.499 45.088 293.81 37.681 295.2 27.312 297.145 8.747 293.11 2.16 289.92-6.754 285.603-14.213 278.502-19.92 270.96-22.239 267.76-24.56 264.56-26.88 261.36V261.12H-27.12C-27.2 287.038-27.279 312.962-27.359 338.88-47.438 338.8-67.521 338.72-87.6 338.64H-133.439C-134.56 335.92-135.68 333.2-136.8 330.48-140.64 322.321-144.48 314.159-148.319 306-148.399 305.84-148.48 305.68-148.56 305.52-150.523 309.517-153.668 312.072-156.239 315.36-166.393 328.339-181.392 337.671-199.68 342.48-232.11 351.009-263.223 334.166-275.52 316.8-288.857 297.966-288.002 264.187-288 232.08V110.88C-288 83.281-288.885 52.987-282.24 31.44-275.439 9.392-260.77-6.681-239.04-13.68-234.207-15.236-228.987-15.971-223.68-17.04-219.227-17.937-214.058-17.521-209.04-17.521-183.999-17.517-169.978-8.996-159.12 5.04-156.396 8.563-152.111 12.151-150.48 16.56H-150V-61.2H-43.68C-42.64-58.48-41.6-55.76-40.56-53.04-36.64-44.721-32.72-36.399-28.8-28.08L-28.56-27.84C-26.866-33.145-18.365-41.342-14.16-44.64-9.776-48.078-5.83-52.147-.96-55.2 11.684-63.125 36.214-70.553 57.36-65.04 78.286-59.585 95.706-48.05 103.681-29.76 107.458-21.096 107.641-10.561 109.681 .24 109.84 4.159 110 8.08 110.16 12 111.645 19.945 110.641 29.744 110.641 38.4" transform="matrix(1,0,0,-1,587.3133,730.4324)"/>
<path fill-rule="evenodd" fill="#d91921" d="M0 0C-2.177-2.983-5.693-4.199-10.319-4.8-16.863-5.649-20.995-1.311-23.04 2.64-28.636 13.453-27.121 32.754-27.12 48.72V180.72C-27.12 195.828-28.72 220.308-22.319 228.96-19.776 232.397-17.104 231.619-13.2 233.52-7.808 233.568-3.054 232.448-.72 229.44 5.2 221.812 4.321 201.748 4.32 188.16V48C4.321 33.462 6.104 8.365 0 0M110.641 38.4V88.32C110.561 123.756 110.48 159.204 110.4 194.64 110.16 201.679 109.92 208.721 109.681 215.76 109.04 221.52 108.4 227.281 107.761 233.04 105.228 244.761 102.856 255.135 97.44 263.76 88.662 277.737 75.271 287.187 57.84 292.56 51.551 294.499 45.088 293.81 37.681 295.2 27.312 297.145 8.747 293.11 2.16 289.92-6.754 285.603-14.213 278.502-19.92 270.96-22.239 267.76-24.56 264.56-26.88 261.36V261.12H-27.12C-27.2 287.038-27.279 312.962-27.359 338.88-47.438 338.8-67.521 338.72-87.6 338.64H-89.525V-61.2H-43.68C-42.64-58.48-41.6-55.76-40.56-53.04-36.64-44.721-32.72-36.399-28.8-28.08L-28.56-27.84C-26.866-33.145-18.365-41.342-14.16-44.64-9.776-48.078-5.83-52.147-.96-55.2 11.684-63.125 36.214-70.553 57.36-65.04 78.286-59.585 95.706-48.05 103.681-29.76 107.458-21.096 107.641-10.561 109.681 .24 109.84 4.159 110 8.08 110.16 12 111.645 19.945 110.641 29.744 110.641 38.4" transform="matrix(1,0,0,-1,587.3133,730.4324)"/>
<path fill="#ffffff" d="M0 0-1.165-3.338-3.367-2.387C-4.439-5.437-5.857-8.201-7.57-10.793L-10.722-9.491C-11.576-6.739-13.171-3.737-15.471-.442L-12.168 1.779C-10.524-.899-9.289-3.456-8.457-5.971-7.605-4.416-6.875-2.833-6.303-1.264-7.411-.929-8.439-.585-9.504-.286L-8.152 2.751C-5.044 1.924-2.324 .98 0 0M-14.616 16.944-14.117 12.006C-16.791 12.037-19.99 11.699-23.713 10.994L-24.089 15.465C-20.654 16.263-17.47 16.759-14.616 16.944M.5 22.059-2.544 16.632 8 7.882 4.737 3.95-5.073 12.09-10.509 2.372-14.771 4.887-8.961 15.317-28.796 31.776-25.533 35.708-6.433 19.859-3.725 24.617ZM-26.461 4.956-29.653 1.11C-28.255-.195-26.98-1.473-25.791-2.678L-22.313 1.514ZM-23 24.339-22.508 19.48C-25.155 19.633-28.317 19.339-32.004 18.677L-32.344 23.191C-28.981 23.903-25.862 24.233-23 24.339M-32.557-2.39-35.533-5.977-31.385-9.419-28.731-6.222C-29.971-4.901-31.246-3.624-32.557-2.39M-32.952 3.993-29.832 7.753-33.851 11.088-36.97 7.328ZM-35.856 .493-39.874 3.828-42.922 .155-38.904-3.18ZM-45.34 4.277C-46.328 5.899-47.424 7.393-48.635 8.835L-44.631 12.518C-43.622 11.096-42.734 9.703-42.041 8.252L-34.295 17.586-15.844 2.275-22.729-6.022C-22.145-6.726-21.604-7.393-21.106-8.024L-18.202-4.524-8.565-12.521C-7.399-13.489-6.256-13.343-5.18-12.046L9.127 5.196C9.844 6.06 10.087 6.88 9.942 7.584 9.818 8.49 8.47 10.119 5.977 12.479L10.048 15.012C13.478 11.582 15.18 9.148 15.197 7.674 15.208 6.28 14.513 4.74 13.115 3.054L-2.663-15.959C-5.137-18.941-7.869-19.155-10.807-16.717L-20.833-8.397C-15.483-15.317-12.528-22.221-11.932-29.064L-17.315-29.924C-17.674-23.058-20.457-16.298-25.741-9.652L-30.94-15.918-49.392-.606Z" transform="matrix(1,0,0,-1,271.4124,388.80543)"/>
<path fill="#ffffff" d="M0 0C-3.223-2.347-6.067-1.778-8.514 1.581L-34.689 37.533-30.377 40.673-19.701 26.011C-16.971 30.083-14.785 34.522-13.145 39.328L-8.103 37.65C-10.75 31.556-13.621 26.34-16.694 21.88L-4.696 5.401C-3.87 4.267-2.941 4.04-1.942 4.767L3.323 8.601C4.141 9.196 4.512 10.021 4.424 11 4.213 11.958 2.589 14.665-.381 19.031L4.617 20.656C8.212 15.147 10.014 11.527 10.114 9.864 10.09 8.18 9.079 6.61 6.991 5.09ZM-41.362 32.675-11.188-8.771-15.545-11.943-20.767-4.771C-23.196-8.971-25.973-13.076-29.142-17.119L-33.292-13.612C-29.686-9.598-26.547-5.228-23.907-.458L-33.822 13.16-45.353 4.766-48.36 8.896-36.83 17.291-45.72 29.502Z" transform="matrix(1,0,0,-1,335.0144,343.3806)"/>
<path fill="#ffffff" d="M0 0-23.633-9.4-20.977-16.078 2.656-6.678ZM-16.923 15.505-14.868 10.34 5.113 18.288 7.022 13.488-12.959 5.54-11.153 1.001 3.037 6.646 9.407-9.37 .695-12.836 4.7-22.904C5.198-24.156 6.146-24.565 7.555-24.005L13.45-21.66C14.128-21.39 14.671-20.932 15.131-20.266 15.591-19.6 15.355-17.639 14.36-14.53L19.678-14.228C20.868-18.89 21.175-21.789 20.548-22.945 19.764-24.164 18.469-25.162 16.611-25.961L8.056-29.364C4.352-30.838 1.737-29.582 .181-25.669L-4.157-14.766-11.617-17.733C-10.375-22.678-10.258-26.619-11.275-29.682-12.659-33.495-15.836-37.66-20.724-42.081L-25.525-39.278C-21.035-35.679-18.151-32.296-16.852-29.182-15.836-26.723-15.799-23.626-16.729-19.767L-24.033-22.672-30.404-6.656-16.162-.991-17.967 3.548-37.948-4.4-39.857 .399-19.876 8.348-21.931 13.513Z" transform="matrix(1,0,0,-1,393.3181,279.96943)"/>
<path fill="#ffffff" d="M0 0C-3.955-.505-6.174 1.363-6.7 5.484L-12.332 49.595-7.041 50.27-4.744 32.28C-.391 34.534 3.662 37.373 7.414 40.795L11.024 36.897C5.77 32.831 .744 29.642-4.098 27.212L-1.516 6.995C-1.338 5.603-.633 4.957 .592 5.113L7.053 5.938C8.055 6.066 8.777 6.611 9.172 7.511 9.449 8.452 9.329 11.606 8.828 16.863L13.99 15.88C14.488 9.321 14.325 5.282 13.611 3.776 12.779 2.311 11.139 1.422 8.576 1.095ZM-20.52 48.549-14.027-2.3-19.374-2.982-20.497 5.817C-24.648 3.306-29.058 1.045-33.781-.973L-35.73 4.099C-30.637 5.881-25.782 8.199-21.173 11.108L-23.306 27.816-37.452 26.01-38.1 31.079-23.953 32.885-25.865 47.866Z" transform="matrix(1,0,0,-1,474.6326,292.97633)"/>
<path fill="#ffffff" d="M0 0-4.312-3.378C-6.737 .875-10.242 5.543-14.828 10.626L-10.904 13.6C-6.493 8.934-2.856 4.419 0 0M-8.647 27.975-34.901 31.167-35.715 24.478-9.461 21.287ZM-2.791 32.411-4.838 15.578-20.389 17.467-22.09 3.477C-22.529-.146-24.648-1.755-28.383-1.301L-34.403-.57-35.014 4.652C-33.145 4.198-31.375 3.87-29.646 3.66-28.197 3.484-27.329 4.114-27.166 5.452L-25.629 18.104-41.57 20.042-39.524 36.875ZM-17.733 43.503 4.785 40.767 4.183 35.806-45.537 41.849-44.936 46.81-23.196 44.167C-23.648 46.033-24.232 47.744-24.836 49.288L-19.266 49.516C-18.687 47.749-18.201 45.709-17.733 43.503M-33.049 12.897C-37.094 8.468-41.846 4.747-47.358 1.74L-50.182 6.438C-44.869 9.187-40.271 12.587-36.377 16.696Z" transform="matrix(1,0,0,-1,565.5272,292.7697)"/>
<path fill="#ffffff" d="M0 0-11.661 4.556-15.032-4.072-3.371-8.628ZM12.871 10.883 11.074 6.281-15.596 16.702-13.797 21.303ZM6.547 2.565-.297-14.953-21.58-6.637-14.735 10.881ZM-5.228-24.177-4.646-18.679 1.861-21.462C3.012-21.911 3.873-21.404 4.445-19.94L17.95 14.625-14.994 27.497-31.277-14.18-36.246-12.239-18.082 34.249 24.797 17.495 8.983-22.979C7.472-26.849 4.97-28.162 1.623-26.854Z" transform="matrix(1,0,0,-1,626.9803,292.36793)"/>
<path fill="#ffffff" d="M0 0C-5.788-5.936-12.71-9.12-20.61-9.526-27.576-9.982-37.438-7.25-50.161-1.284L-48.917 4.391C-37.628-1.165-28.642-3.96-21.958-3.994-19.745-3.994-17.661-3.693-15.694-3.17-22.121 .204-29.816 4.699-38.781 10.313L-37.383 15.048C-31.681 14.13-25.009 14.175-17.435 15.092-22.31 17.835-27.085 20.716-31.729 23.778L-30.136 28.303C-22.101 28.612-14.335 30.083-6.728 32.775L-3.544 28.066C-10.104 25.866-16.761 24.496-23.603 24.021-19.413 21.286-15.159 18.643-10.839 16.091-7.136 16.817-3.288 17.647 .657 18.614L3.423 13.515C-9.479 10.479-20.077 9.108-28.386 9.479-21.583 5.281-15.55 1.842-10.257-.994-8.08 .207-6 1.754-4.095 3.635Z" transform="matrix(1,0,0,-1,712.4656,337.09443)"/>
<path fill="#ffffff" d="M0 0C-.355 6.008-.041 11.918 .977 17.688-4.766 17.628-10.643 18.337-16.687 19.859ZM5.895 19.253C4.514 8.853 5.029-1.273 7.514-11.212L1.682-12.3C.848-8.601 .322-5.009 .077-1.401L-3.146-4.11-21.097 17.252-17.701 20.106C-21.285 21.055-24.928 22.248-28.628 23.685L-26.516 29.2C-16.412 24.856-6.453 22.517 3.367 22.262ZM-2.283-14.825-6.238-18.148-23.068 1.883C-28.262 .819-33.234 .454-38.031 .751-32.486-5.15-26.986-10.648-21.458-15.831-20.865-13.132-20.381-10.305-19.962-7.313L-15.269-8.796C-16.237-16.284-17.406-22.398-18.738-27.184L-23.998-25.811C-23.494-24.141-22.984-22.392-22.51-20.601-29.14-14.805-37-7.109-46.053 2.443L-43.467 6.523C-42.379 5.75-41.414 5.388-40.58 5.355-35.922 5.31-31.423 5.716-27.041 6.611L-35.493 16.669-31.539 19.992Z" transform="matrix(1,0,0,-1,767.4725,386.70533)"/>
<path fill="#ffffff" d="M0 0C-.655-1.532-1.361-3.043-1.953-4.599-2.792-6.805-3.566-9.036-4.329-11.27-4.854-12.81-5.344-14.363-5.794-15.926-6.136-17.114-6.408-18.323-6.681-19.53-6.978-20.841-7.326-22.149-7.496-23.479-7.671-24.853-7.67-26.249-7.724-27.637-7.735-27.918-7.612-28.104-7.269-28.224-6.361-28.54-5.49-28.958-4.598-29.321-4.25-29.464-4.126-29.7-4.315-30.015-4.602-30.492-4.911-30.959-5.25-31.399-6.034-32.414-6.919-33.338-7.945-34.109-8.483-34.512-9.08-34.786-9.783-34.461-10.402-34.175-10.533-33.578-10.577-33.031-10.66-31.986-10.614-30.93-10.634-29.879-10.646-29.313-10.67-28.746-10.712-28.181-10.844-26.377-10.991-24.575-11.123-22.772-11.227-21.345-11.366-19.918-11.394-18.489-11.409-17.695-11.291-16.884-11.125-16.104-10.729-14.239-10.329-12.372-9.817-10.537-9.31-8.716-8.668-6.933-8.077-5.135-6.841-1.377-5.271 2.247-3.654 5.85-2.758 7.845-1.737 9.786-.76 11.744-.407 12.451-.045 13.157 .365 13.832 1.213 15.231 2.077 16.623 2.973 17.992 3.632 19.001 4.316 20 5.062 20.944 5.496 21.492 6.063 21.937 6.59 22.405 7.375 23.102 8.184 23.77 8.968 24.467 9.774 25.184 10.552 25.934 11.362 26.646 12.146 27.337 12.958 27.997 13.754 28.673 14.742 29.512 15.699 30.39 16.724 31.18 17.287 31.613 17.92 32.026 18.726 31.631 19.336 31.333 19.407 30.725 19.488 30.217 19.719 28.778 19.595 27.333 19.311 25.901 19.249 25.586 19.292 25.251 19.24 24.933 19.13 24.264 18.86 24.17 18.254 24.44 17.346 24.846 16.416 25.204 15.483 25.55 15.338 25.604 15.067 25.55 14.959 25.441 14.281 24.752 13.607 24.055 12.979 23.319 12.209 22.418 11.434 21.514 10.756 20.546 9.93 19.367 9.197 18.123 8.434 16.901 7.961 16.143 7.488 15.382 7.048 14.604 6.476 13.59 5.912 12.57 5.387 11.531 4.294 9.368 3.195 7.208 2.165 5.016 1.391 3.368 .721 1.672 .004-.002 .003-.001 .001-.001 0 0" transform="matrix(1,0,0,-1,214.8001,469.69367)"/>
<path fill="#ffffff" d="M0 0C-.401 .171-.822 .306-1.198 .522-1.91 .932-2.375 .469-2.854 .094-4.152-.921-5.255-2.134-6.279-3.413-6.974-4.281-7.641-5.184-8.213-6.135-9.424-8.152-10.674-10.157-11.708-12.266-12.973-14.846-14.086-17.507-15.166-20.173-15.886-21.953-16.481-23.79-17.043-25.628-17.421-26.867-17.668-28.148-17.928-29.419-18.116-30.343-18.261-31.279-18.368-32.217-18.469-33.102-18.532-33.994-18.543-34.884-18.552-35.617-18.475-36.352-18.409-37.083-18.373-37.489-18.254-37.82-17.781-37.995-16.777-38.366-15.801-38.813-14.815-39.233-14.519-39.359-14.458-39.669-14.691-39.968-15.385-40.856-16.064-41.757-16.797-42.611-17.438-43.359-18.08-44.13-18.842-44.739-19.375-45.165-20.088-45.438-20.764-45.585-21.344-45.711-21.748-45.208-22.009-44.716-22.37-44.035-22.534-43.287-22.5-42.521-22.432-40.98-22.297-39.441-22.236-37.9-22.2-36.981-22.25-36.06-22.263-35.139-22.285-33.673-22.292-32.206-22.337-30.74-22.373-29.604-22.521-28.467-22.503-27.333-22.485-26.198-22.325-25.065-22.219-23.932-22.188-23.609-22.151-23.284-22.081-22.968-21.815-21.761-21.632-20.524-21.238-19.36-20.532-17.272-19.741-15.209-18.9-13.171-18.129-11.302-17.104-9.554-15.925-7.912-15.037-6.674-14.098-5.461-13.075-4.333-12.276-3.452-11.313-2.72-10.425-1.919-10.093-1.62-9.762-1.319-9.44-1.009-7.442 .919-5.437 2.841-3.453 4.784-2.581 5.637-1.778 6.561-.896 7.402-.326 7.944 .323 8.388 1.194 8.327 1.9 8.278 2.383 7.944 2.582 7.261 2.973 5.915 2.981 4.548 2.783 3.171 2.629 2.102 2.467 1.033 2.333-.039 2.259-.638 1.962-.829 1.424-.585 .957-.374 .481-.18 .009 .022 .006 .015 .003 .007 0 0" transform="matrix(1,0,0,-1,215.1238,446.59883)"/>
<path fill="#ffffff" d="M0 0C-.368-.529-.832-.402-1.296-.355-2.451-.238-3.514 .253-4.683 .377-5.797 .496-6.544 1.038-6.431 2.249-6.363 2.973-6.029 3.653-5.411 4.062-5.143 4.239-4.671 4.255-4.346 4.161-3.919 4.036-3.539 3.739-3.151 3.498-2.738 3.24-2.348 2.946-1.931 2.694-1.378 2.361-.782 2.094-.256 1.725 .212 1.395 .33 .882 .132 .356 .512 .787 .878 1.228 1.273 1.643 1.636 2.023 2.065 2.115 2.588 1.945 3.146 1.765 3.729 1.567 4.303 1.561 4.84 1.555 5.406 1.725 5.913 1.932 7.028 2.387 8.166 2.825 9.196 3.436 10.262 4.068 11.252 4.849 12.205 5.649 13.791 6.984 15.323 8.382 16.87 9.762 17.527 10.348 18.109 11.036 18.827 11.53 19.505 11.997 20.286 12.38 21.076 12.604 22.308 12.954 23.597 12.058 23.801 10.771 23.943 9.88 23.897 8.958 24.049 8.068 24.189 7.252 23.88 6.518 23.818 5.742 23.79 5.389 23.609 5.38 23.342 5.496 22.613 5.812 21.86 6.08 21.16 6.447 20.587 6.749 20.135 6.606 19.598 6.359 18.347 5.783 17.326 4.897 16.408 3.927 15.522 2.99 14.75 1.929 14.026 .856 12.666-1.16 11.643-3.361 10.732-5.61 9.861-7.76 9.233-9.981 8.941-12.286 8.813-13.295 8.68-14.305 8.854-15.333 8.962-15.966 8.893-16.63 9.01-17.261 9.104-17.77 9.34-18.256 9.55-18.737 9.609-18.874 9.779-18.991 9.925-19.055 10.708-19.399 11.5-19.724 12.289-20.054 12.545-20.162 12.763-20.342 12.561-20.609 11.482-22.031 10.321-23.375 8.696-24.211 7.581-24.786 6.706-24.521 5.867-23.522 5.226-22.759 4.943-21.836 4.902-20.849 4.853-19.667 4.826-18.486 4.797-17.304 4.771-16.198 4.813-15.088 4.721-13.988 4.565-12.146 4.398-10.298 4.095-8.476 3.935-7.511 3.508-6.583 3.145-5.661 2.886-5.002 2.59-4.341 2.198-3.757 1.975-3.424 1.525-3.243 1.175-2.997 .91-2.81 .557-2.682 .394-2.43 .154-2.058-.012-1.61-.093-1.173-.157-.832-.044-.458 0 0" transform="matrix(1,0,0,-1,177.2,453.48854)"/>
<path fill="#ffffff" d="M0 0C-.673-1.573-1.342-3.147-2.02-4.718-2.285-5.332-2.476-5.392-3.187-5.088-6.179-3.809-9.171-2.527-12.16-1.241-12.906-.92-12.976-.768-12.716-.107-12.574 .255-12.407 .607-12.263 .968-11.378 3.19-10.518 5.422-9.604 7.631-9.29 8.389-8.841 9.089-8.458 9.817-8.262 10.191-7.912 10.123-7.554 9.975-6.912 9.709-6.278 9.422-5.639 9.151-3.25 8.137-.861 7.125 1.528 6.112 2.166 5.842 2.348 5.415 2.083 4.792 1.401 3.189 .714 1.589 .029-.013 .02-.008 .01-.004 0 0" transform="matrix(1,0,0,-1,232.4168,476.91096)"/>
<path fill="#ffffff" d="M0 0C-1.723-.519-3.181-.194-4.43 .833-7.632 3.468-8.522 8.365-5.762 11.875-2.942 15.461 2.408 16.16 5.938 12.919 8.131 10.906 8.793 8.349 8.464 5.498 8.086 2.211 6.548-.539 4.353-2.963 1.78-5.803-1.381-7.812-4.772-9.501-5.094-9.661-5.49-9.752-5.243-10.277-4.996-10.801-4.657-10.732-4.251-10.504-2.263-9.385-.21-8.368 1.702-7.132 4.865-5.087 7.41-2.397 9.376 .828 10.438 2.569 11.532 4.287 13.063 5.671 14.232 6.728 15.605 7.455 17.035 8.081 20.376 9.546 23.88 9.643 27.425 9.241 31.043 8.83 34.51 7.819 37.869 6.43 38.044 6.358 38.214 6.272 38.54 6.122 37.747 4.184 37.018 2.233 36.158 .341 34.984-2.242 33.465-4.623 31.636-6.799 29.374-9.491 26.584-11.426 23.215-12.441 20.93-13.13 18.589-12.938 16.266-12.559 13.721-12.144 11.157-11.9 8.597-12.272 6.963-12.51 5.331-12.875 3.754-13.359 1.82-13.952-.059-14.722-1.952-15.438-2.17-15.52-2.443-15.708-2.496-15.899-2.55-16.099-2.408-16.395-2.266-16.583-2.203-16.666-1.912-16.631-1.751-16.576 .304-15.871 2.312-14.986 4.411-14.473 8.847-13.388 13.266-13.324 17.447-15.552 19.663-16.733 21.385-18.42 22.128-20.872 22.937-23.536 22.43-26.038 20.662-28.183 18.081-31.314 13.856-32.014 10.346-29.974 8.733-29.038 7.702-27.601 7.042-25.893 6.526-24.562 6.278-23.184 6.7-21.776 7.036-20.654 7.609-19.69 8.779-19.064 8.891-19.671 8.958-20.204 9.088-20.722 9.385-21.913 10.43-22.578 11.716-22.428 12.714-22.312 13.665-21.258 13.593-20.169 13.51-18.913 12.727-18.081 11.637-17.523 10.242-16.81 8.745-16.712 7.226-16.843 4.561-17.073 2.087-17.995-.366-18.991-.919-19.216-1.017-19.492-.761-20.014-.264-21.03 .194-22.064 .665-23.093 .992-23.81 .977-23.848 .241-24.188-.63-24.593-1.517-24.968-2.371-25.405-2.866-25.66-3.104-25.583-3.338-25.06-4.275-22.955-5.254-20.868-6.222-18.775-6.532-18.105-6.66-18.098-7.237-18.559-10.174-20.897-11.183-24.083-11.275-27.677-11.279-27.847-11.297-28.017-11.295-28.186-11.294-28.35-11.277-28.514-11.257-28.847-13.856-27.783-14.752-25.673-15.178-23.344-16.136-23.353-17.021-23.413-17.9-23.355-19.248-23.268-20.358-22.581-21.371-21.749-21.548-21.603-21.642-21.26-21.64-21.009-21.624-18.806-20.724-17.033-18.97-15.696-18.922-15.659-18.891-15.6-18.793-15.477-20.319-13.586-21.348-11.525-20.519-8.947-19.479-9.692-18.579-10.433-17.592-11.026-15.212-12.455-12.654-13.049-9.883-12.448-9.359-12.334-9.282-12.112-9.501-11.644-10.489-9.538-11.438-7.413-12.44-5.314-12.701-4.77-12.592-4.533-12.054-4.313-11.146-3.942-10.257-3.521-9.378-3.084-8.888-2.841-8.608-2.918-8.385-3.438-7.939-4.478-7.449-5.498-6.971-6.523-6.63-7.252-6.57-7.279-5.875-6.936-3.769-5.895-1.725-4.733 .041-3.176 1.536-1.856 2.84-.353 3.095 1.749 3.236 2.912 2.988 3.978 1.911 4.643 .94 5.243-.158 5.021-.968 4.131-1.631 3.401-1.696 2.197-1.09 1.351-.776 .913-.415 .51 0 0" transform="matrix(1,0,0,-1,795.9568,451.94947)"/>
<path fill="#d91921" d="M2475.773 95.19H1152.043V1067.188H2475.773Z" transform="matrix(1,0,0,-1,0,1170.41)"/>
<path fill-rule="evenodd" fill="#124194" d="M0 0C0-203.691-165.124-368.815-368.815-368.815-572.506-368.815-737.631-203.691-737.631 0-737.631 203.691-572.506 368.815-368.815 368.815-165.124 368.815 0 203.691 0 0" transform="matrix(1,0,0,-1,2098.2967,591.424)"/>
<path d="M0 0C0-203.691-165.124-368.815-368.815-368.815-572.506-368.815-737.631-203.691-737.631 0-737.631 203.691-572.506 368.815-368.815 368.815-165.124 368.815 0 203.691 0 0Z" stroke="#ffffff" fill="none" stroke-linejoin="miter" stroke-miterlimit="10" stroke-linecap="butt" stroke-width="5" transform="matrix(1,0,0,-1,2098.2967,591.424)"/>
<path fill="#ffffff" d="M0 0 45.674-7.384 44.775-12.944 4.49-6.432 1.145-27.127-4.245-26.256Z" transform="matrix(1,0,0,-1,1385.3474,523.02078)"/>
<path fill="#ffffff" d="M0 0 6.564-.65 6.012-6.227 .83-5.713C-1.977-5.436-3.967-4.937-5.143-4.217-6.757-3.221-7.906-1.803-8.591 .034L-6.234 1.084C-5.878-.001-5.227-.849-4.283-1.458-3.339-2.066-2.001-2.486-.269-2.716Z" transform="matrix(1,0,0,-1,1420.8611,557.40896)"/>
<path fill="#ffffff" d="M0 0-.257-14.429 12.634-10.215C16.55-8.929 19.766-7.98 22.28-7.367 19.324-6.772 16.393-5.955 13.486-4.916ZM-18.777 12.618 27.191-4.55 27.084-10.618-19.486-27.212-19.373-20.796-5.273-16.082-4.957 1.714-18.884 6.638Z" transform="matrix(1,0,0,-1,1398.0818,577.75906)"/>
<path fill="#ffffff" d="M0 0 1.051-5.233C-1.227-5.722-3.054-6.5-4.434-7.568-5.814-8.636-6.86-10.18-7.57-12.2-8.281-14.22-8.512-16.433-8.262-18.84-8.039-20.977-7.498-22.828-6.638-24.393-5.777-25.958-4.704-27.077-3.417-27.751-2.131-28.425-.776-28.688 .646-28.541 2.091-28.391 3.312-27.875 4.31-26.993 5.307-26.11 6.08-24.746 6.629-22.898 6.992-21.712 7.479-19.122 8.091-15.127 8.701-11.133 9.377-8.309 10.114-6.656 11.055-4.515 12.327-2.86 13.93-1.691 15.532-.522 17.391 .171 19.504 .391 21.828 .632 24.062 .251 26.207-.752 28.353-1.755 30.069-3.367 31.357-5.588 32.646-7.809 33.438-10.345 33.734-13.194 34.061-16.333 33.799-19.157 32.948-21.668 32.099-24.18 30.674-26.191 28.673-27.703 26.672-29.214 24.326-30.158 21.637-30.535L20.64-25.209C23.519-24.618 25.614-23.413 26.928-21.593 28.24-19.773 28.729-17.236 28.391-13.983 28.038-10.594 27.107-8.195 25.596-6.785 24.086-5.375 22.377-4.77 20.473-4.967 18.82-5.139 17.517-5.829 16.563-7.037 15.607-8.226 14.807-11.156 14.16-15.825 13.514-20.495 12.859-23.721 12.198-25.502 11.219-28.094 9.844-30.076 8.072-31.448 6.3-32.818 4.18-33.632 1.71-33.889-.738-34.143-3.113-33.738-5.412-32.673-7.713-31.607-9.59-29.929-11.044-27.638-12.498-25.347-13.383-22.689-13.696-19.667-14.094-15.835-13.82-12.562-12.876-9.846-11.932-7.131-10.316-4.91-8.031-3.184-5.746-1.458-3.068-.396 0 0" transform="matrix(1,0,0,-1,1393.7986,609.4602)"/>
<path fill="#ffffff" d="M0 0 1.687-5.064C-.512-5.829-2.23-6.827-3.469-8.057-4.708-9.286-5.556-10.946-6.012-13.039-6.469-15.13-6.426-17.355-5.881-19.713-5.398-21.807-4.633-23.577-3.587-25.024-2.541-26.471-1.338-27.45 .021-27.961 1.381-28.471 2.758-28.566 4.152-28.244 5.566-27.918 6.715-27.255 7.598-26.258 8.479-25.259 9.078-23.81 9.396-21.909 9.609-20.687 9.775-18.057 9.891-14.018 10.006-9.978 10.328-7.093 10.857-5.362 11.527-3.121 12.586-1.322 14.033 .035 15.479 1.392 17.238 2.309 19.309 2.787 21.584 3.312 23.849 3.208 26.102 2.477 28.354 1.745 30.256 .356 31.808-1.69 33.359-3.735 34.457-6.154 35.102-8.946 35.811-12.02 35.898-14.855 35.363-17.452 34.829-20.049 33.662-22.22 31.862-23.966 30.062-25.712 27.852-26.937 25.229-27.643L23.584-22.479C26.368-21.539 28.3-20.085 29.379-18.118 30.459-16.15 30.631-13.573 29.895-10.385 29.129-7.065 27.91-4.799 26.236-3.586 24.564-2.373 22.795-1.981 20.93-2.412 19.31-2.786 18.102-3.631 17.304-4.947 16.502-6.244 16.066-9.25 16-13.964 15.932-18.677 15.68-21.959 15.242-23.808 14.59-26.501 13.469-28.637 11.879-30.216 10.289-31.795 8.284-32.863 5.865-33.422 3.467-33.975 1.061-33.864-1.354-33.09-3.767-32.316-5.836-30.881-7.561-28.787-9.285-26.691-10.49-24.163-11.174-21.202-12.039-17.449-12.17-14.166-11.566-11.355-10.963-8.544-9.633-6.141-7.578-4.147-5.522-2.153-2.996-.771 0 0" transform="matrix(1,0,0,-1,1398.49,650.50369)"/>
<path fill="#ffffff" d="M0 0C-5.217-1.969-8.838-4.811-10.865-8.525-12.894-12.238-13.172-16.042-11.702-19.936-10.205-23.902-7.457-26.594-3.458-28.012 .541-29.43 5.325-29.088 10.896-26.984 14.42-25.654 17.288-23.945 19.502-21.857 21.717-19.77 23.148-17.397 23.799-14.742 24.449-12.086 24.279-9.444 23.287-6.818 21.879-3.088 19.274-.404 15.475 1.233 11.673 2.871 6.516 2.46 0 0M-1.963 5.467C5.222 8.179 11.517 8.527 16.922 6.513 22.326 4.498 26.088 .684 28.208-4.93 29.596-8.606 29.893-12.281 29.098-15.953 28.303-19.626 26.49-22.881 23.659-25.719 20.828-28.557 17.248-30.793 12.918-32.428 8.527-34.086 4.293-34.753 .214-34.432-3.866-34.109-7.361-32.791-10.27-30.475-13.18-28.16-15.287-25.272-16.594-21.813-18.008-18.064-18.289-14.343-17.436-10.648-16.582-6.953-14.739-3.703-11.908-.896-9.076 1.911-5.762 4.031-1.963 5.467" transform="matrix(1,0,0,-1,1417.2713,693.7927)"/>
<path fill="#ffffff" d="M0 0 1.344-5.685C-3.637-7.06-8.02-7.032-11.808-5.606-15.596-4.179-18.553-1.521-20.678 2.37-22.876 6.396-23.773 10.157-23.369 13.653-22.966 17.149-21.434 20.479-18.773 23.641-16.113 26.804-12.844 29.442-8.967 31.562-4.738 33.87-.645 35.142 3.316 35.375 7.276 35.608 10.823 34.8 13.956 32.948 17.089 31.097 19.555 28.524 21.355 25.228 23.396 21.491 24.078 17.782 23.402 14.104 22.727 10.427 20.787 7.063 17.586 4.014L13.682 8.2C16.162 10.681 17.627 13.112 18.076 15.497 18.523 17.88 18.065 20.321 16.701 22.818 15.133 25.69 13.075 27.681 10.526 28.792 7.978 29.903 5.229 30.161 2.282 29.565-.666 28.972-3.479 27.942-6.155 26.479-9.608 24.594-12.37 22.484-14.44 20.151-16.511 17.819-17.649 15.327-17.855 12.679-18.063 10.028-17.545 7.565-16.302 5.289-14.789 2.521-12.641 .649-9.857-.322-7.072-1.294-3.787-1.187 0 0" transform="matrix(1,0,0,-1,1442.2888,763.2937)"/>
<path fill="#ffffff" d="M0 0 38.392 25.822 41.535 21.148 3.144-4.674Z" transform="matrix(1,0,0,-1,1436.8484,784.58767)"/>
<path fill="#ffffff" d="M0 0 9.061-11.232 16.245 .271C18.424 3.769 20.281 6.56 21.816 8.644 19.168 7.204 16.395 5.949 13.498 4.882ZM-22.498-2.368 23.777 13.956 27.587 9.232 2.512-33.376-1.517-28.382 6.273-15.719-4.901-1.865-18.743-7.024Z" transform="matrix(1,0,0,-1,1466.449,793.50076)"/>
<path fill="#ffffff" d="M0 0 28.947 28.764 19.062 38.711 22.935 42.56 46.717 18.627 42.844 14.778 32.917 24.768 3.971-3.996Z" transform="matrix(1,0,0,-1,1478.8552,836.5896)"/>
<path fill="#ffffff" d="M0 0 30.061 35.172 34.343 31.512 4.281-3.66Z" transform="matrix(1,0,0,-1,1499.7537,856.27908)"/>
<path fill="#ffffff" d="M0 0C-3.196-4.568-4.583-8.959-4.161-13.168-3.741-17.379-1.825-20.676 1.585-23.062 5.06-25.492 8.847-26.164 12.948-25.079 17.05-23.994 20.808-21.012 24.22-16.133 26.379-13.047 27.783-10.018 28.434-7.044 29.084-4.07 28.929-1.305 27.968 1.255 27.005 3.814 25.374 5.899 23.075 7.508 19.808 9.793 16.143 10.54 12.081 9.748 8.019 8.956 3.991 5.707 0 0M-4.704 3.406C-.302 9.699 4.698 13.539 10.298 14.924 15.896 16.31 21.155 15.283 26.072 11.844 29.292 9.592 31.609 6.725 33.025 3.244 34.44-.237 34.78-3.947 34.045-7.888 33.309-11.828 31.614-15.694 28.96-19.486 26.271-23.332 23.151-26.271 19.602-28.309 16.052-30.344 12.422-31.227 8.714-30.956 5.005-30.686 1.636-29.49-1.394-27.371-4.677-25.075-7.009-22.16-8.388-18.628-9.769-15.096-10.081-11.372-9.326-7.457-8.572-3.543-7.032 .078-4.704 3.406" transform="matrix(1,0,0,-1,1529.7898,852.24)"/>
<path fill="#ffffff" d="M0 0 21.042 41.207 26.187 38.578 29.579-3.941 46.099 28.411 50.909 25.955 29.867-15.251 24.722-12.623 21.345 29.925 4.81-2.455Z" transform="matrix(1,0,0,-1,1555.1707,896.15017)"/>
<path fill="#ffffff" d="M0 0 8.717-2.568C11.409-3.361 13.602-3.711 15.295-3.618 16.986-3.524 18.434-3.117 19.635-2.396 21.326-1.381 22.876 .196 24.283 2.337 25.691 4.477 26.889 7.223 27.876 10.573 29.244 15.215 29.594 18.988 28.928 21.895 28.26 24.8 27.049 26.973 25.293 28.41 24.023 29.443 21.781 30.432 18.57 31.379L9.992 33.906ZM-6.947-3.645 6.132 40.736 20.197 36.592C23.371 35.656 25.732 34.73 27.278 33.813 29.445 32.539 31.129 30.891 32.33 28.87 33.9 26.258 34.766 23.255 34.928 19.863 35.088 16.471 34.586 12.796 33.42 8.841 32.426 5.47 31.184 2.59 29.693 .199 28.201-2.19 26.639-4.071 25.003-5.443 23.367-6.814 21.732-7.791 20.099-8.373 18.463-8.955 16.621-9.219 14.568-9.162 12.517-9.105 10.256-8.714 7.787-7.986Z" transform="matrix(1,0,0,-1,1620.9627,919.3435)"/>
<path fill="#ffffff" d="M0 0 7.268 45.693 37.662 40.858 36.805 35.467 11.973 39.416 9.746 25.421 33.002 21.724 32.149 16.362 8.895 20.061 6.42 4.507 32.229 .403 31.371-4.989Z" transform="matrix(1,0,0,-1,1659.0447,935.2683)"/>
<path fill="#ffffff" d="M0 0 10.598 .172C12.416 .201 13.692 .296 14.426 .455 15.718 .729 16.795 1.167 17.656 1.771 18.518 2.373 19.221 3.242 19.764 4.377 20.307 5.512 20.566 6.814 20.542 8.288 20.514 10.013 20.084 11.505 19.25 12.765 18.416 14.024 17.273 14.9 15.824 15.393 14.373 15.885 12.294 16.108 9.584 16.064L-.258 15.904ZM-.346 21.364 8.857 21.514C11.354 21.554 13.141 21.762 14.219 22.137 15.645 22.623 16.711 23.408 17.419 24.493 18.127 25.578 18.469 26.93 18.441 28.55 18.417 30.085 18.057 31.432 17.36 32.588 16.664 33.744 15.684 34.528 14.418 34.939 13.152 35.35 10.992 35.531 7.934 35.481L-.572 35.344ZM-5.543-5.55-6.293 40.711 9.674 40.971C12.926 41.023 15.541 40.597 17.521 39.693 19.5 38.789 21.062 37.372 22.207 35.444 23.352 33.517 23.941 31.49 23.976 29.365 24.008 27.388 23.544 25.518 22.586 23.756 21.627 21.994 20.158 20.561 18.184 19.455 20.77 18.676 22.771 17.309 24.187 15.354 25.604 13.398 26.334 11.075 26.377 8.383 26.412 6.215 26.024 4.194 25.213 2.318 24.4 .443 23.383-1.01 22.162-2.039 20.939-3.068 19.398-3.857 17.539-4.402 15.68-4.948 13.395-5.243 10.686-5.287Z" transform="matrix(1,0,0,-1,1724.8591,936.6735)"/>
<path fill="#ffffff" d="M0 0-6.3 45.837 24.191 50.027 24.936 44.618 .024 41.195 1.953 27.156 25.282 30.362 26.021 24.984 2.693 21.778 4.837 6.176 30.726 9.734 31.469 4.325Z" transform="matrix(1,0,0,-1,1762.6716,940.7888)"/>
<path fill="#ffffff" d="M0 0-10.279 45.111-4.787 46.363 5.492 1.252Z" transform="matrix(1,0,0,-1,1805.0486,933.85916)"/>
<path fill="#ffffff" d="M0 0 4.639 2.207C5.8-1.134 7.09-3.27 8.508-4.201 9.925-5.133 11.55-5.318 13.384-4.759 14.734-4.346 15.798-3.653 16.573-2.68 17.349-1.705 17.745-.584 17.763 .687 17.779 1.957 17.401 3.859 16.627 6.395L7.321 36.883 12.708 38.527 21.913 8.371C23.044 4.668 23.507 1.676 23.304-.608 23.101-2.893 22.268-4.841 20.807-6.452 19.346-8.064 17.411-9.238 15.005-9.973 11.433-11.063 8.355-10.781 5.776-9.127 3.196-7.473 1.271-4.43 0 0" transform="matrix(1,0,0,-1,1815.5671,918.0739)"/>
<path fill="#ffffff" d="M0 0-16.668 43.16-11.414 45.189 5.255 2.029Z" transform="matrix(1,0,0,-1,1853.2107,919.56619)"/>
<path fill="#ffffff" d="M0 0-20.592 41.433-15.417 44.004 20.771 21.425 4.604 53.955 9.439 56.358 30.032 14.926 24.857 12.354-11.345 34.962 4.837 2.404Z" transform="matrix(1,0,0,-1,1870.1375,913.1052)"/>
<path fill="#ffffff" d="M0 0-3.063 4.48 11.805 14.682 21.494 .508C20.562-3.034 19.223-6.135 17.477-8.794 15.73-11.453 13.578-13.656 11.021-15.404 7.57-17.764 3.885-19.104-.034-19.426-3.953-19.746-7.67-18.879-11.187-16.822-14.702-14.766-17.742-11.861-20.307-8.109-22.848-4.393-24.505-.434-25.277 3.766-26.049 7.966-25.627 11.766-24.012 15.164-22.395 18.562-19.837 21.457-16.338 23.85-13.797 25.586-11.193 26.709-8.529 27.219-5.863 27.727-3.402 27.582-1.143 26.781 1.116 25.98 3.428 24.502 5.792 22.347L2.452 18.229C.596 19.813-1.105 20.895-2.648 21.471-4.191 22.047-5.918 22.172-7.829 21.848-9.74 21.521-11.583 20.754-13.357 19.541-15.482 18.088-17.08 16.48-18.148 14.717-19.219 12.954-19.837 11.174-20.004 9.378-20.171 7.582-20.049 5.816-19.639 4.084-18.919 1.109-17.615-1.758-15.727-4.52-13.4-7.924-10.913-10.404-8.268-11.959-5.621-13.516-2.888-14.145-.066-13.847 2.755-13.549 5.324-12.608 7.642-11.025 9.654-9.648 11.333-7.884 12.674-5.73 14.016-3.577 14.855-1.685 15.193-.051L10.332 7.062Z" transform="matrix(1,0,0,-1,1917.9783,865.3025)"/>
<path fill="#ffffff" d="M0 0 6.409 6.442C8.389 8.433 9.74 10.194 10.464 11.727 11.188 13.26 11.518 14.726 11.456 16.126 11.369 18.097 10.719 20.21 9.507 22.468 8.295 24.724 6.451 27.084 3.975 29.548 .544 32.96-2.607 35.065-5.48 35.862-8.354 36.657-10.841 36.627-12.941 35.769-14.454 35.144-16.391 33.644-18.752 31.269L-25.06 24.929ZM-.102-7.845-32.903 24.786-22.562 35.182C-20.228 37.528-18.289 39.163-16.748 40.087-14.595 41.386-12.344 42.081-9.996 42.175-6.95 42.313-3.897 41.645-.838 40.171 2.223 38.696 5.214 36.506 8.137 33.598 10.629 31.119 12.57 28.655 13.961 26.206 15.354 23.757 16.264 21.486 16.691 19.396 17.119 17.305 17.199 15.401 16.933 13.688 16.666 11.972 16.021 10.227 14.994 8.449 13.967 6.671 12.547 4.87 10.73 3.045Z" transform="matrix(1,0,0,-1,1966.2283,842.8015)"/>
<path fill="#ffffff" d="M0 0 3.411 4.482 24.683-11.707C28.384-14.523 31.028-17.145 32.619-19.57 34.21-21.998 34.923-24.734 34.757-27.783 34.592-30.832 33.267-33.989 30.78-37.255 28.366-40.428 25.796-42.571 23.071-43.684 20.347-44.798 17.531-44.929 14.622-44.077 11.714-43.227 8.31-41.316 4.408-38.347L-16.863-22.158-13.452-17.676 7.794-33.846C10.993-36.279 13.558-37.799 15.489-38.405 17.42-39.012 19.304-38.961 21.138-38.253 22.972-37.545 24.622-36.229 26.087-34.303 28.596-31.007 29.571-28.039 29.015-25.402 28.457-22.765 25.868-19.687 21.247-16.17Z" transform="matrix(1,0,0,-1,1978.5086,766.74)"/>
<path fill="#ffffff" d="M0 0C2.333 2.472 4.845 4.218 7.536 5.235 6.069 9.661 2.388 13.339-3.51 16.27-6.863 17.937-10.054 18.868-13.081 19.064-16.108 19.261-18.816 18.693-21.204 17.362-23.593 16.03-25.412 14.108-26.661 11.595-28.53 7.833-28.683 4.019-27.116 .149-25.55-3.721-21.987-7.036-16.429-9.798-11.04-12.477-6.295-13.306-2.193-12.285 1.909-11.265 4.907-8.849 6.802-5.034 7.698-3.231 8.175-1.351 8.232 .61 6.337-.415 4.719-1.687 3.378-3.202ZM12.526 7.62C15.441 9.089 17.796 10.61 19.587 12.184L22.667 8.806C20.231 6.601 17.179 4.713 13.509 3.144 13.819-.534 13.126-4.081 11.429-7.495 9.715-10.945 7.256-13.624 4.052-15.534 .847-17.443-2.771-18.342-6.804-18.229-10.836-18.117-14.905-17.04-19.013-14.999-23.102-12.968-26.444-10.355-29.04-7.163-31.636-3.972-33.11-.531-33.462 3.157-33.815 6.845-33.126 10.431-31.394 13.915-29.646 17.434-27.159 20.153-23.937 22.076-20.715 23.997-17.101 24.888-13.095 24.745-9.09 24.603-5.033 23.511-.926 21.47 2.485 19.774 5.314 17.774 7.563 15.468 9.813 13.161 11.467 10.546 12.526 7.62" transform="matrix(1,0,0,-1,2032.7703,740.36599)"/>
<path fill="#ffffff" d="M0 0 1.782 5.343 27.14-3.118C31.551-4.589 34.9-6.217 37.188-8.001 39.477-9.785 41.034-12.146 41.861-15.085 42.688-18.025 42.452-21.441 41.153-25.333 39.891-29.116 38.15-31.973 35.931-33.906 33.711-35.838 31.088-36.871 28.061-37.003 25.033-37.136 21.193-36.426 16.543-34.875L-8.814-26.414-7.031-21.07 18.297-29.521C22.109-30.793 25.026-31.405 27.05-31.355 29.074-31.306 30.84-30.651 32.348-29.388 33.855-28.126 34.992-26.348 35.758-24.052 37.069-20.124 37.035-17 35.657-14.683 34.279-12.367 30.836-10.289 25.326-8.451Z" transform="matrix(1,0,0,-1,2021.7283,677.34207)"/>
<path fill="#ffffff" d="M0 0-45.408 8.876-39.504 39.082-34.146 38.035-38.97 13.357-25.062 10.638-20.544 33.749-15.217 32.708-19.733 9.597-4.278 6.576 .735 32.223 6.094 31.175ZM-45.968 20.819-53.899 26.305-52.585 33.03-45.138 25.065Z" transform="matrix(1,0,0,-1,2070.6473,673.91287)"/>
<path fill="#ffffff" d="M0 0 .742 10.572C.871 12.387 .887 13.666 .791 14.411 .631 15.722 .287 16.833-.24 17.743-.766 18.653-1.571 19.428-2.654 20.067-3.738 20.706-5.015 21.077-6.484 21.18-8.205 21.301-9.729 21.001-11.056 20.279-12.383 19.558-13.354 18.495-13.969 17.093-14.584 15.69-14.987 13.638-15.178 10.935L-15.867 1.116ZM-21.314 1.499-20.668 10.681C-20.494 13.171-20.546 14.97-20.827 16.076-21.187 17.538-21.879 18.668-22.898 19.467-23.918 20.267-25.235 20.723-26.852 20.837-28.383 20.945-29.756 20.702-30.969 20.108-32.181 19.514-33.046 18.604-33.564 17.38-34.083 16.154-34.449 14.017-34.664 10.966L-35.262 2.479ZM5.051-6.002-41.104-2.756-39.982 13.174C-39.754 16.418-39.104 18.987-38.033 20.881-36.961 22.775-35.415 24.209-33.396 25.183-31.376 26.157-29.307 26.569-27.187 26.42-25.213 26.281-23.391 25.658-21.719 24.551-20.045 23.444-18.744 21.858-17.812 19.794-16.814 22.304-15.279 24.181-13.209 25.422-11.139 26.664-8.761 27.191-6.074 27.002-3.912 26.85-1.933 26.289-.135 25.318 1.664 24.348 3.023 23.208 3.944 21.902 4.865 20.595 5.517 18.992 5.9 17.093 6.283 15.193 6.379 12.892 6.189 10.189Z" transform="matrix(1,0,0,-1,2073.0584,625.8156)"/>
<path fill="#ffffff" d="M0 0-46.208-2.342-47.766 28.396-42.313 28.672-41.04 3.56-26.888 4.277-28.08 27.795-22.658 28.069-21.467 4.552-5.738 5.349-7.061 31.448-1.607 31.724Z" transform="matrix(1,0,0,-1,2080.3787,588.4904)"/>
<path fill="#ffffff" d="M0 0 .523 5.818C5.682 5.548 9.832 4.137 12.975 1.586 16.118-.965 18.082-4.422 18.869-8.784 19.683-13.299 19.346-17.151 17.857-20.34 16.369-23.529 13.863-26.204 10.34-28.363 6.816-30.522 2.881-31.994-1.467-32.777-6.209-33.632-10.495-33.544-14.326-32.514-18.156-31.483-21.266-29.595-23.653-26.849-26.041-24.103-27.566-20.881-28.233-17.186-28.988-12.995-28.464-9.261-26.66-5.986-24.855-2.71-21.953-.132-17.953 1.75L-15.571-3.456C-18.709-5.024-20.867-6.869-22.046-8.989-23.225-11.11-23.562-13.57-23.057-16.371-22.477-19.59-21.152-22.13-19.086-23.989-17.02-25.85-14.493-26.963-11.509-27.33-8.524-27.696-5.531-27.609-2.528-27.068 1.344-26.37 4.631-25.242 7.332-23.683 10.033-22.124 11.9-20.121 12.935-17.672 13.969-15.224 14.256-12.724 13.795-10.17 13.236-7.066 11.789-4.612 9.454-2.81 7.12-1.008 3.969-.072 0 0" transform="matrix(1,0,0,-1,2056.1385,518.42947)"/>
<path fill-rule="evenodd" fill="#ffffff" d="M0 0C0-158.36-128.377-286.737-286.737-286.737-445.098-286.737-573.474-158.36-573.474 0-573.474 158.36-445.098 286.737-286.737 286.737-128.377 286.737 0 158.36 0 0" transform="matrix(1,0,0,-1,2016.2185,591.424)"/>
<path d="M0 0C0-158.36-128.377-286.737-286.737-286.737-445.098-286.737-573.474-158.36-573.474 0-573.474 158.36-445.098 286.737-286.737 286.737-128.377 286.737 0 158.36 0 0Z" stroke="#1f419a" fill="none" stroke-linejoin="miter" stroke-miterlimit="10" stroke-linecap="butt" stroke-width="3" transform="matrix(1,0,0,-1,2016.2185,591.424)"/>
<path fill-rule="evenodd" fill="#21409a" d="M0 0C-2.177-2.983-5.694-4.199-10.32-4.8-16.863-5.649-20.995-1.311-23.04 2.64-28.637 13.453-27.122 32.754-27.12 48.72V180.72C-27.12 195.828-28.721 220.308-22.32 228.96-19.777 232.397-17.104 231.619-13.2 233.52-7.809 233.568-3.055 232.448-.721 229.44 5.2 221.812 4.321 201.748 4.319 188.16V48C4.32 33.462 6.103 8.365 0 0M-154.561 49.2C-156.597 46.213-159.905 44.985-164.16 44.16-169.157 43.19-173.773 45.826-175.92 48-183.204 55.374-181.682 82.214-181.681 97.2V229.2C-181.681 243.067-182.87 269.101-177.601 277.2-176.173 279.394-173.489 281.245-170.641 282-169.601 282.16-168.561 282.32-167.521 282.48-163.995 282.072-160.265 281.75-157.681 279.84-149.124 273.518-149.998 249.748-150 234.48V99.12C-150 84.516-148.856 57.566-154.561 49.2M110.64 38.4V88.32C110.56 123.756 110.479 159.204 110.399 194.64 110.16 201.679 109.92 208.721 109.68 215.76 109.04 221.52 108.399 227.281 107.76 233.04 105.228 244.761 102.856 255.135 97.439 263.76 88.662 277.737 75.271 287.187 57.84 292.56 51.55 294.499 45.088 293.81 37.68 295.2 27.311 297.145 8.747 293.11 2.16 289.92-6.755 285.603-14.213 278.502-19.92 270.96-22.24 267.76-24.561 264.56-26.88 261.36V261.12H-27.12C-27.2 287.038-27.28 312.962-27.36 338.88-47.438 338.8-67.522 338.72-87.601 338.64H-133.44C-134.561 335.92-135.681 333.2-136.8 330.48-140.64 322.321-144.48 314.159-148.32 306-148.4 305.84-148.48 305.68-148.561 305.52-150.524 309.517-153.668 312.072-156.24 315.36-166.394 328.339-181.393 337.671-199.681 342.48-232.111 351.009-263.223 334.166-275.521 316.8-288.857 297.966-288.003 264.187-288 232.08V110.88C-288 83.281-288.886 52.987-282.24 31.44-275.44 9.392-260.77-6.681-239.04-13.68-234.208-15.236-228.987-15.971-223.681-17.04-219.228-17.937-214.058-17.521-209.04-17.521-184-17.517-169.979-8.996-159.12 5.04-156.396 8.563-152.111 12.151-150.48 16.56H-150V-61.2H-43.681C-42.641-58.48-41.601-55.76-40.561-53.04-36.641-44.721-32.72-36.399-28.8-28.08-28.721-28-28.641-27.92-28.561-27.84-26.867-33.145-18.366-41.342-14.16-44.64-9.777-48.078-5.831-52.147-.96-55.2 11.683-63.125 36.213-70.553 57.359-65.04 78.285-59.585 95.705-48.05 103.68-29.76 107.458-21.096 107.64-10.561 109.68 .24 109.84 4.159 110 8.08 110.16 12 111.645 19.945 110.641 29.744 110.64 38.4" transform="matrix(1,0,0,-1,1813.3113,730.4324)"/>
<path fill-rule="evenodd" fill="#d91921" d="M0 0C-2.177-2.983-5.694-4.199-10.32-4.8-16.863-5.649-20.995-1.311-23.04 2.64-28.637 13.453-27.122 32.754-27.12 48.72V180.72C-27.12 195.828-28.721 220.308-22.32 228.96-19.777 232.397-17.104 231.619-13.2 233.52-7.809 233.568-3.055 232.448-.721 229.44 5.2 221.812 4.321 201.748 4.319 188.16V48C4.32 33.462 6.103 8.365 0 0M110.64 38.4V88.32C110.56 123.756 110.479 159.204 110.399 194.64 110.16 201.679 109.92 208.721 109.68 215.76 109.04 221.52 108.399 227.281 107.76 233.04 105.228 244.761 102.856 255.135 97.439 263.76 88.662 277.737 75.271 287.187 57.84 292.56 51.55 294.499 45.088 293.81 37.68 295.2 27.311 297.145 8.747 293.11 2.16 289.92-6.755 285.603-14.213 278.502-19.92 270.96-22.24 267.76-24.561 264.56-26.88 261.36V261.12H-27.12C-27.2 287.038-27.28 312.962-27.36 338.88-47.438 338.8-67.522 338.72-87.601 338.64H-89.526V-61.2H-43.681C-42.641-58.48-41.601-55.76-40.561-53.04-36.641-44.721-32.72-36.399-28.8-28.08-28.721-28-28.641-27.92-28.561-27.84-26.867-33.145-18.366-41.342-14.16-44.64-9.777-48.078-5.831-52.147-.96-55.2 11.683-63.125 36.213-70.553 57.359-65.04 78.285-59.585 95.705-48.05 103.68-29.76 107.458-21.096 107.64-10.561 109.68 .24 109.84 4.159 110 8.08 110.16 12 111.645 19.945 110.641 29.744 110.64 38.4" transform="matrix(1,0,0,-1,1813.3113,730.4324)"/>
<path fill="#ffffff" d="M0 0-1.165-3.338-3.367-2.387C-4.439-5.437-5.857-8.201-7.57-10.793L-10.722-9.491C-11.576-6.739-13.171-3.737-15.471-.442L-12.169 1.779C-10.523-.899-9.289-3.456-8.457-5.971-7.604-4.416-6.875-2.833-6.303-1.264-7.41-.929-8.439-.585-9.504-.286L-8.151 2.751C-5.044 1.924-2.324 .98 0 0M-14.616 16.944-14.117 12.006C-16.791 12.037-19.99 11.699-23.713 10.994L-24.089 15.465C-20.654 16.263-17.47 16.759-14.616 16.944M.5 22.059-2.544 16.632 8 7.882 4.736 3.95-5.072 12.09-10.509 2.372-14.771 4.887-8.962 15.317-28.797 31.776-25.533 35.708-6.434 19.859-3.726 24.617ZM-26.461 4.956-29.652 1.11C-28.255-.195-26.979-1.473-25.791-2.678L-22.312 1.514ZM-23 24.339-22.508 19.48C-25.154 19.633-28.317 19.339-32.004 18.677L-32.345 23.191C-28.981 23.903-25.861 24.233-23 24.339M-32.557-2.39-35.533-5.977-31.385-9.419-28.731-6.222C-29.971-4.901-31.246-3.624-32.557-2.39M-32.951 3.993-29.832 7.753-33.851 11.088-36.971 7.328ZM-35.855 .493-39.875 3.828-42.923 .155-38.904-3.18ZM-45.34 4.277C-46.328 5.899-47.424 7.393-48.635 8.835L-44.631 12.518C-43.621 11.096-42.734 9.703-42.041 8.252L-34.295 17.586-15.844 2.275-22.729-6.022C-22.145-6.726-21.604-7.393-21.106-8.024L-18.202-4.524-8.565-12.521C-7.398-13.489-6.256-13.343-5.18-12.046L9.127 5.196C9.844 6.06 10.087 6.88 9.941 7.584 9.817 8.49 8.47 10.119 5.978 12.479L10.049 15.012C13.479 11.582 15.18 9.148 15.197 7.674 15.207 6.28 14.514 4.74 13.115 3.054L-2.663-15.959C-5.137-18.941-7.869-19.155-10.807-16.717L-20.832-8.397C-15.483-15.317-12.528-22.221-11.932-29.064L-17.314-29.924C-17.674-23.058-20.457-16.298-25.74-9.652L-30.939-15.918-49.392-.606Z" transform="matrix(1,0,0,-1,1497.4099,388.80543)"/>
<path fill="#ffffff" d="M0 0C-3.224-2.347-6.068-1.778-8.514 1.581L-34.69 37.533-30.378 40.673-19.702 26.011C-16.972 30.083-14.785 34.522-13.145 39.328L-8.104 37.65C-10.751 31.556-13.621 26.34-16.694 21.88L-4.697 5.401C-3.871 4.267-2.942 4.04-1.943 4.767L3.323 8.601C4.14 9.196 4.511 10.021 4.424 11 4.213 11.958 2.589 14.665-.382 19.031L4.617 20.656C8.212 15.147 10.013 11.527 10.113 9.864 10.089 8.18 9.079 6.61 6.99 5.09ZM-41.362 32.675-11.188-8.771-15.546-11.943-20.768-4.771C-23.197-8.971-25.974-13.076-29.142-17.119L-33.293-13.612C-29.687-9.598-26.547-5.228-23.907-.458L-33.822 13.16-45.353 4.766-48.36 8.896-36.83 17.291-45.721 29.502Z" transform="matrix(1,0,0,-1,1561.0125,343.3806)"/>
<path fill="#ffffff" d="M0 0-23.633-9.4-20.977-16.078 2.656-6.678ZM-16.923 15.505-14.869 10.34 5.112 18.288 7.021 13.488-12.959 5.54-11.154 1.001 3.036 6.646 9.407-9.37 .694-12.836 4.699-22.904C5.197-24.156 6.146-24.565 7.555-24.005L13.449-21.66C14.128-21.39 14.671-20.932 15.131-20.266 15.591-19.6 15.354-17.639 14.359-14.53L19.678-14.228C20.867-18.89 21.175-21.789 20.547-22.945 19.763-24.164 18.468-25.162 16.611-25.961L8.055-29.364C4.351-30.838 1.736-29.582 .18-25.669L-4.157-14.766-11.617-17.733C-10.376-22.678-10.258-26.619-11.275-29.682-12.659-33.495-15.836-37.66-20.725-42.081L-25.525-39.278C-21.035-35.679-18.151-32.296-16.853-29.182-15.836-26.723-15.799-23.626-16.73-19.767L-24.034-22.672-30.404-6.656-16.162-.991-17.968 3.548-37.949-4.4-39.858 .399-19.877 8.348-21.932 13.513Z" transform="matrix(1,0,0,-1,1619.3162,279.96943)"/>
<path fill="#ffffff" d="M0 0C-3.954-.505-6.174 1.363-6.7 5.484L-12.331 49.595-7.04 50.27-4.743 32.28C-.39 34.534 3.663 37.373 7.414 40.795L11.024 36.897C5.771 32.831 .744 29.642-4.097 27.212L-1.516 6.995C-1.338 5.603-.633 4.957 .593 5.113L7.054 5.938C8.056 6.066 8.778 6.611 9.173 7.511 9.449 8.452 9.329 11.606 8.828 16.863L13.991 15.88C14.489 9.321 14.325 5.282 13.612 3.776 12.78 2.311 11.14 1.422 8.577 1.095ZM-20.519 48.549-14.026-2.3-19.373-2.982-20.497 5.817C-24.647 3.306-29.058 1.045-33.78-.973L-35.729 4.099C-30.637 5.881-25.782 8.199-21.173 11.108L-23.306 27.816-37.452 26.01-38.099 31.079-23.952 32.885-25.865 47.866Z" transform="matrix(1,0,0,-1,1700.6296,292.97633)"/>
<path fill="#ffffff" d="M0 0-4.313-3.378C-6.738 .875-10.243 5.543-14.829 10.626L-10.904 13.6C-6.494 8.934-2.857 4.419 0 0M-8.648 27.975-34.902 31.167-35.715 24.478-9.461 21.287ZM-2.792 32.411-4.838 15.578-20.39 17.467-22.09 3.477C-22.53-.146-24.648-1.755-28.384-1.301L-34.404-.57-35.014 4.652C-33.146 4.198-31.375 3.87-29.647 3.66-28.198 3.484-27.33 4.114-27.167 5.452L-25.629 18.104-41.57 20.042-39.525 36.875ZM-17.734 43.503 4.785 40.767 4.182 35.806-45.538 41.849-44.936 46.81-23.197 44.167C-23.648 46.033-24.232 47.744-24.837 49.288L-19.266 49.516C-18.688 47.749-18.201 45.709-17.734 43.503M-33.05 12.897C-37.095 8.468-41.846 4.747-47.359 1.74L-50.182 6.438C-44.87 9.187-40.271 12.587-36.378 16.696Z" transform="matrix(1,0,0,-1,1791.5252,292.7697)"/>
<path fill="#ffffff" d="M0 0-11.662 4.556-15.033-4.072-3.371-8.628ZM12.871 10.883 11.073 6.281-15.596 16.702-13.798 21.303ZM6.547 2.565-.297-14.953-21.58-6.637-14.736 10.881ZM-5.229-24.177-4.646-18.679 1.861-21.462C3.012-21.911 3.872-21.404 4.444-19.94L17.949 14.625-14.994 27.497-31.278-14.18-36.246-12.239-18.082 34.249 24.797 17.495 8.982-22.979C7.471-26.849 4.969-28.162 1.623-26.854Z" transform="matrix(1,0,0,-1,1852.9783,292.36793)"/>
<path fill="#ffffff" d="M0 0C-5.787-5.936-12.71-9.12-20.609-9.526-27.576-9.982-37.438-7.25-50.16-1.284L-48.916 4.391C-37.627-1.165-28.641-3.96-21.957-3.994-19.744-3.994-17.661-3.693-15.694-3.17-22.121 .204-29.816 4.699-38.781 10.313L-37.383 15.048C-31.68 14.13-25.009 14.175-17.434 15.092-22.309 17.835-27.084 20.716-31.729 23.778L-30.136 28.303C-22.1 28.612-14.334 30.083-6.728 32.775L-3.543 28.066C-10.104 25.866-16.76 24.496-23.602 24.021-19.413 21.286-15.158 18.643-10.838 16.091-7.135 16.817-3.288 17.647 .658 18.614L3.423 13.515C-9.479 10.479-20.076 9.108-28.385 9.479-21.583 5.281-15.549 1.842-10.257-.994-8.08 .207-6 1.754-4.094 3.635Z" transform="matrix(1,0,0,-1,1938.4627,337.09443)"/>
<path fill="#ffffff" d="M0 0C-.354 6.008-.041 11.918 .978 17.688-4.766 17.628-10.642 18.337-16.687 19.859ZM5.896 19.253C4.515 8.853 5.03-1.273 7.515-11.212L1.683-12.3C.848-8.601 .323-5.009 .077-1.401L-3.146-4.11-21.097 17.252-17.7 20.106C-21.284 21.055-24.927 22.248-28.628 23.685L-26.515 29.2C-16.411 24.856-6.453 22.517 3.367 22.262ZM-2.282-14.825-6.237-18.148-23.068 1.883C-28.261 .819-33.233 .454-38.03 .751-32.485-5.15-26.985-10.648-21.458-15.831-20.864-13.132-20.38-10.305-19.962-7.313L-15.269-8.796C-16.237-16.284-17.405-22.398-18.737-27.184L-23.997-25.811C-23.494-24.141-22.983-22.392-22.509-20.601-29.14-14.805-36.999-7.109-46.052 2.443L-43.466 6.523C-42.378 5.75-41.413 5.388-40.579 5.355-35.921 5.31-31.423 5.716-27.041 6.611L-35.493 16.669-31.538 19.992Z" transform="matrix(1,0,0,-1,1993.4695,386.70533)"/>
<path fill="#ffffff" d="M0 0C-.655-1.532-1.361-3.043-1.953-4.599-2.791-6.805-3.565-9.036-4.329-11.27-4.854-12.81-5.344-14.363-5.794-15.926-6.137-17.114-6.407-18.323-6.681-19.53-6.979-20.841-7.325-22.149-7.496-23.479-7.672-24.853-7.67-26.249-7.724-27.637-7.734-27.918-7.612-28.104-7.269-28.224-6.361-28.54-5.489-28.958-4.599-29.321-4.25-29.464-4.126-29.7-4.315-30.015-4.603-30.492-4.911-30.959-5.251-31.399-6.034-32.414-6.919-33.338-7.945-34.109-8.482-34.512-9.08-34.786-9.782-34.461-10.402-34.175-10.532-33.578-10.576-33.031-10.66-31.986-10.614-30.93-10.635-29.879-10.646-29.313-10.671-28.746-10.712-28.181-10.844-26.377-10.991-24.575-11.123-22.772-11.227-21.345-11.365-19.918-11.394-18.489-11.409-17.695-11.291-16.884-11.125-16.104-10.729-14.239-10.329-12.372-9.817-10.537-9.31-8.716-8.668-6.933-8.077-5.135-6.842-1.377-5.271 2.247-3.653 5.85-2.758 7.845-1.737 9.786-.76 11.744-.407 12.451-.045 13.157 .364 13.832 1.214 15.231 2.076 16.623 2.973 17.992 3.633 19.001 4.315 20 5.062 20.944 5.495 21.492 6.063 21.937 6.59 22.405 7.374 23.102 8.184 23.77 8.968 24.467 9.774 25.184 10.552 25.934 11.362 26.646 12.146 27.337 12.958 27.997 13.754 28.673 14.742 29.512 15.699 30.39 16.725 31.18 17.287 31.613 17.92 32.026 18.726 31.631 19.336 31.333 19.407 30.725 19.488 30.217 19.72 28.778 19.595 27.333 19.311 25.901 19.248 25.586 19.292 25.251 19.239 24.933 19.13 24.264 18.859 24.17 18.254 24.44 17.347 24.846 16.416 25.204 15.483 25.55 15.338 25.604 15.066 25.55 14.96 25.441 14.28 24.752 13.606 24.055 12.979 23.319 12.209 22.418 11.435 21.514 10.756 20.546 9.93 19.367 9.197 18.123 8.435 16.901 7.961 16.143 7.488 15.382 7.048 14.604 6.476 13.59 5.912 12.57 5.388 11.531 4.294 9.368 3.194 7.208 2.164 5.016 1.391 3.368 .721 1.672 .005-.002 .003-.001 .001-.001 0 0" transform="matrix(1,0,0,-1,1440.7976,469.69367)"/>
<path fill="#ffffff" d="M0 0C-.4 .171-.822 .306-1.197 .522-1.909 .932-2.374 .469-2.854 .094-4.151-.921-5.255-2.134-6.278-3.413-6.974-4.281-7.641-5.184-8.213-6.135-9.424-8.152-10.673-10.157-11.707-12.266-12.973-14.846-14.085-17.507-15.165-20.173-15.886-21.953-16.48-23.79-17.043-25.628-17.421-26.867-17.668-28.148-17.927-29.419-18.116-30.343-18.26-31.279-18.367-32.217-18.468-33.102-18.531-33.994-18.543-34.884-18.552-35.617-18.474-36.352-18.408-37.083-18.372-37.489-18.253-37.82-17.78-37.995-16.776-38.366-15.801-38.813-14.814-39.233-14.518-39.359-14.457-39.669-14.691-39.968-15.385-40.856-16.064-41.757-16.797-42.611-17.437-43.359-18.079-44.13-18.842-44.739-19.374-45.165-20.088-45.438-20.763-45.585-21.343-45.711-21.747-45.208-22.009-44.716-22.369-44.035-22.533-43.287-22.499-42.521-22.432-40.98-22.297-39.441-22.235-37.9-22.199-36.981-22.249-36.06-22.263-35.139-22.284-33.673-22.291-32.206-22.337-30.74-22.372-29.604-22.521-28.467-22.503-27.333-22.484-26.198-22.324-25.065-22.219-23.932-22.188-23.609-22.15-23.284-22.08-22.968-21.814-21.761-21.632-20.524-21.238-19.36-20.531-17.272-19.74-15.209-18.899-13.171-18.129-11.302-17.103-9.554-15.925-7.912-15.036-6.674-14.097-5.461-13.074-4.333-12.275-3.452-11.313-2.72-10.424-1.919-10.093-1.62-9.762-1.319-9.44-1.009-7.441 .919-5.437 2.841-3.452 4.784-2.58 5.637-1.777 6.561-.895 7.402-.325 7.944 .323 8.388 1.195 8.327 1.9 8.278 2.384 7.944 2.582 7.261 2.974 5.915 2.981 4.548 2.783 3.171 2.63 2.102 2.468 1.033 2.334-.039 2.26-.638 1.963-.829 1.425-.585 .958-.374 .482-.18 .01 .022 .007 .015 .004 .007 0 0" transform="matrix(1,0,0,-1,1441.1209,446.59883)"/>
<path fill="#ffffff" d="M0 0C-.368-.529-.833-.402-1.297-.355-2.451-.238-3.514 .253-4.684 .377-5.798 .496-6.545 1.038-6.432 2.249-6.364 2.973-6.03 3.653-5.411 4.062-5.144 4.239-4.672 4.255-4.347 4.161-3.92 4.036-3.54 3.739-3.151 3.498-2.738 3.24-2.348 2.946-1.932 2.694-1.379 2.361-.782 2.094-.257 1.725 .212 1.395 .329 .882 .132 .356 .512 .787 .878 1.228 1.272 1.643 1.635 2.023 2.064 2.115 2.588 1.945 3.146 1.765 3.729 1.567 4.303 1.561 4.84 1.555 5.406 1.725 5.913 1.932 7.027 2.387 8.165 2.825 9.195 3.436 10.262 4.068 11.252 4.849 12.204 5.649 13.79 6.984 15.322 8.382 16.87 9.762 17.526 10.348 18.109 11.036 18.826 11.53 19.505 11.997 20.285 12.38 21.076 12.604 22.308 12.954 23.597 12.058 23.801 10.771 23.942 9.88 23.896 8.958 24.049 8.068 24.188 7.252 23.88 6.518 23.817 5.742 23.789 5.389 23.608 5.38 23.341 5.496 22.613 5.812 21.86 6.08 21.159 6.447 20.587 6.749 20.135 6.606 19.598 6.359 18.346 5.783 17.325 4.897 16.408 3.927 15.521 2.99 14.75 1.929 14.025 .856 12.665-1.16 11.643-3.361 10.731-5.61 9.86-7.76 9.233-9.981 8.94-12.286 8.813-13.295 8.68-14.305 8.854-15.333 8.961-15.966 8.893-16.63 9.01-17.261 9.104-17.77 9.34-18.256 9.549-18.737 9.608-18.874 9.778-18.991 9.925-19.055 10.708-19.399 11.499-19.724 12.288-20.054 12.545-20.162 12.763-20.342 12.561-20.609 11.481-22.031 10.321-23.375 8.695-24.211 7.58-24.786 6.706-24.521 5.867-23.522 5.226-22.759 4.943-21.836 4.901-20.849 4.853-19.667 4.825-18.486 4.797-17.304 4.771-16.198 4.812-15.088 4.72-13.988 4.565-12.146 4.397-10.298 4.095-8.476 3.935-7.511 3.508-6.583 3.145-5.661 2.885-5.002 2.59-4.341 2.197-3.757 1.975-3.424 1.524-3.243 1.175-2.997 .909-2.81 .556-2.682 .394-2.43 .153-2.058-.013-1.61-.094-1.173-.157-.832-.045-.458 0 0" transform="matrix(1,0,0,-1,1403.198,453.48854)"/>
<path fill="#ffffff" d="M0 0C-.672-1.573-1.342-3.147-2.02-4.718-2.285-5.332-2.476-5.392-3.187-5.088-6.179-3.809-9.17-2.527-12.16-1.241-12.905-.92-12.976-.768-12.716-.107-12.573 .255-12.406 .607-12.263 .968-11.378 3.19-10.518 5.422-9.604 7.631-9.29 8.389-8.84 9.089-8.458 9.817-8.262 10.191-7.911 10.123-7.553 9.975-6.911 9.709-6.278 9.422-5.639 9.151-3.25 8.137-.86 7.125 1.529 6.112 2.166 5.842 2.349 5.415 2.084 4.792 1.401 3.189 .715 1.589 .029-.013 .02-.008 .01-.004 0 0" transform="matrix(1,0,0,-1,1458.4138,476.91096)"/>
<path fill="#ffffff" d="M0 0C-1.722-.519-3.18-.194-4.429 .833-7.632 3.468-8.522 8.365-5.762 11.875-2.941 15.461 2.409 16.16 5.938 12.919 8.132 10.906 8.793 8.349 8.465 5.498 8.086 2.211 6.548-.539 4.353-2.963 1.781-5.803-1.38-7.812-4.772-9.501-5.093-9.661-5.489-9.752-5.242-10.277-4.996-10.801-4.656-10.732-4.25-10.504-2.263-9.385-.21-8.368 1.702-7.132 4.865-5.087 7.411-2.397 9.377 .828 10.438 2.569 11.532 4.287 13.063 5.671 14.232 6.728 15.605 7.455 17.035 8.081 20.376 9.546 23.881 9.643 27.425 9.241 31.043 8.83 34.51 7.819 37.869 6.43 38.044 6.358 38.214 6.272 38.54 6.122 37.747 4.184 37.019 2.233 36.159 .341 34.985-2.242 33.465-4.623 31.637-6.799 29.374-9.491 26.584-11.426 23.216-12.441 20.93-13.13 18.59-12.938 16.267-12.559 13.721-12.144 11.157-11.9 8.597-12.272 6.963-12.51 5.332-12.875 3.754-13.359 1.821-13.952-.058-14.722-1.952-15.438-2.169-15.52-2.443-15.708-2.495-15.899-2.549-16.099-2.407-16.395-2.266-16.583-2.203-16.666-1.912-16.631-1.75-16.576 .304-15.871 2.313-14.986 4.412-14.473 8.848-13.388 13.266-13.324 17.447-15.552 19.663-16.733 21.385-18.42 22.129-20.872 22.937-23.536 22.43-26.038 20.663-28.183 18.082-31.314 13.857-32.014 10.346-29.974 8.734-29.038 7.703-27.601 7.042-25.893 6.527-24.562 6.278-23.184 6.7-21.776 7.036-20.654 7.609-19.69 8.78-19.064 8.891-19.671 8.959-20.204 9.088-20.722 9.386-21.913 10.431-22.578 11.716-22.428 12.715-22.312 13.665-21.258 13.594-20.169 13.511-18.913 12.727-18.081 11.637-17.523 10.242-16.81 8.745-16.712 7.226-16.843 4.561-17.073 2.088-17.995-.365-18.991-.919-19.216-1.016-19.492-.761-20.014-.264-21.03 .194-22.064 .665-23.093 .992-23.81 .977-23.848 .241-24.188-.63-24.593-1.516-24.968-2.37-25.405-2.866-25.66-3.104-25.583-3.337-25.06-4.275-22.955-5.254-20.868-6.222-18.775-6.532-18.105-6.659-18.098-7.237-18.559-10.173-20.897-11.182-24.083-11.274-27.677-11.279-27.847-11.296-28.017-11.295-28.186-11.294-28.35-11.276-28.514-11.257-28.847-13.856-27.783-14.751-25.673-15.178-23.344-16.135-23.353-17.021-23.413-17.899-23.355-19.248-23.268-20.357-22.581-21.37-21.749-21.547-21.603-21.642-21.26-21.64-21.009-21.623-18.806-20.724-17.033-18.97-15.696-18.921-15.659-18.89-15.6-18.792-15.477-20.318-13.586-21.348-11.525-20.518-8.947-19.478-9.692-18.579-10.433-17.591-11.026-15.211-12.455-12.653-13.049-9.883-12.448-9.359-12.334-9.281-12.112-9.501-11.644-10.488-9.538-11.438-7.413-12.44-5.314-12.7-4.77-12.591-4.533-12.054-4.313-11.146-3.942-10.257-3.521-9.377-3.084-8.888-2.841-8.607-2.918-8.384-3.438-7.938-4.478-7.449-5.498-6.97-6.523-6.63-7.252-6.57-7.279-5.875-6.936-3.768-5.895-1.725-4.733 .041-3.176 1.537-1.856 2.841-.353 3.096 1.749 3.236 2.912 2.988 3.978 1.912 4.643 .94 5.243-.157 5.021-.967 4.131-1.63 3.401-1.695 2.197-1.089 1.351-.775 .913-.414 .51 0 0" transform="matrix(1,0,0,-1,2021.9539,451.94947)"/>
</g>
</g>
</svg>